<svg viewBox="235 0 165 120" fill="none" xmlns="http://www.w3.org/2000/svg">
<path d="M387.844 1.96875H381.547V8.40625H387.844V1.96875Z" fill="#450A0A"/>
<path d="M378.922 11.0625H370.078V20.0625H378.922V11.0625Z" fill="#450A0A"/>
<path d="M396.609 14.0625H388.156V22.6562H396.609V14.0625Z" fill="#450A0A"/>
<path d="M399.328 31.8125H390.469V40.8125H399.328V31.8125Z" fill="#450A0A"/>
<path d="M365.696 10.3906H359.188V0H369.406V10.3906H365.696Z" fill="#450A0A"/>
<path d="M352.625 10.3906L359.203 0V10.3906H352.625Z" fill="#450A0A"/>
<path d="M369.406 118.856C368.639 119.039 367.866 119.203 367.084 119.344C364.525 119.804 361.871 120.021 359.198 119.998V114.118H369.406V118.856Z" fill="#DC2626"/>
<path d="M359.198 103.742H348.988V114.119H359.198V103.742Z" fill="#DC2626"/>
<path d="M348.988 93.3628H338.779V103.742H348.988V93.3628Z" fill="#DC2626"/>
<path d="M338.779 82.9868H328.571V93.3628H338.779V82.9868Z" fill="#DC2626"/>
<path d="M318.642 82.9853C318.503 81.7741 318.406 80.5599 318.359 79.3394V75.5489C318.4 74.5701 318.471 73.5882 318.571 72.6094H328.569V82.9853H318.642Z" fill="#DC2626"/>
<path d="M359.203 120C355.769 119.974 352.312 119.545 348.999 118.712V114.121H359.203V120Z" fill="#991B1B"/>
<path d="M348.999 103.747H338.795V114.121H348.999V103.747Z" fill="#991B1B"/>
<path d="M338.795 93.3712H328.593V103.747H338.795V93.3712Z" fill="#991B1B"/>
<path d="M321.117 93.3712L321.024 93.1173C320.485 91.6511 320.04 90.1511 319.675 88.6356L319.671 88.6264V88.6141C319.226 86.7725 318.894 84.8955 318.672 83H328.593V93.3727L321.117 93.3712Z" fill="#991B1B"/>
<path d="M349 118.719C346.822 118.169 344.707 117.445 342.703 116.546C341.354 115.938 340.052 115.258 338.793 114.509V114.124H349V118.719Z" fill="#991B1B"/>
<path d="M338.163 114.124C336.692 113.208 335.287 112.197 333.944 111.102L333.925 111.094L333.92 111.081C332.135 109.623 330.467 108.017 328.91 106.272C328.801 106.149 328.693 106.026 328.586 105.901V103.741H338.791V114.123L338.163 114.124Z" fill="#991B1B"/>
<path d="M326.828 103.743C324.431 100.593 322.494 97.1161 321.109 93.3594H328.587V103.743H326.828Z" fill="#991B1B"/>
<path d="M328.587 105.901C327.977 105.199 327.391 104.48 326.828 103.741H328.587V105.901Z" fill="#991B1B"/>
<path d="M359.198 51.874H366.053V52.4463H369.396V62.2508H359.198V51.874Z" fill="#EF4444"/>
<path d="M359.198 41.4987H348.997V51.874H359.198V41.4987Z" fill="#EF4444"/>
<path d="M338.797 32.3744L339.585 31.125H348.997V41.4987H338.797V32.3744Z" fill="#EF4444"/>
<path d="M389.799 83.0013H399.687C399.288 86.6172 398.494 90.0807 397.279 93.375H389.799V83.0013Z" fill="#EF4444"/>
<path d="M369.4 31.1319V41.5105H359.194V31.1319H369.4ZM366.796 39.9557H367.308H367.872V37.0678V35.1405V34.0921V33.3363V32.6898H360.726V39.9572H363.093L366.796 39.9557Z" fill="#991B1B"/>
<path d="M359.194 20.7518V31.1319H348.986V20.7518H359.194Z" fill="#991B1B"/>
<path d="M346.109 20.7518L348.986 16.1875V20.7518H346.109Z" fill="#991B1B"/>
<path d="M369.4 41.5105H379.609V51.8906H371.156V47.2709H369.4V41.5105Z" fill="#991B1B"/>
<path d="M359.173 41.4886H369.378V47.2477H367.285H366.775H366.033V51.8664H359.173V41.4886Z" fill="#DC2626"/>
<path d="M359.173 31.1122H348.965V41.4886H359.173V31.1122Z" fill="#DC2626"/>
<path d="M339.547 31.1122L346.089 20.7344H348.965V31.1122H339.547Z" fill="#DC2626"/>
<path d="M389.794 83V72.6237H399.752C399.909 74.0642 399.989 75.5171 400 76.9761V77.4625C399.994 79.3463 399.895 81.19 399.69 82.9984L389.794 83Z" fill="#DC2626"/>
<path d="M379.587 62.2458V72.6236H389.794V62.2458H384.69H382.987H379.587Z" fill="#DC2626"/>
<path d="M371.134 51.8664H379.587V62.2458H369.378V52.4389H371.134V51.8664Z" fill="#DC2626"/>
<path d="M369.391 62.2569H359.19V72.6341H369.391V62.2569Z" fill="#FEE2E2"/>
<path d="M359.19 51.8782H348.987V62.2569H359.19V51.8782Z" fill="#FEE2E2"/>
<path d="M348.987 41.501H338.784V51.8782H348.987V41.501Z" fill="#FEE2E2"/>
<path d="M333.031 41.501L338.784 32.375V41.501H333.031Z" fill="#FEE2E2"/>
<path d="M397.281 93.3869C395.933 97.065 394.063 100.529 391.645 103.766H389.797V93.3869H397.281Z" fill="#FEE2E2"/>
<path d="M389.797 83.0113H379.596V93.3869H389.797V83.0113Z" fill="#FEE2E2"/>
<path d="M379.596 72.6341H369.391V83.0097H379.596V72.6341Z" fill="#FEE2E2"/>
<path d="M369.376 72.6153V82.9903H359.17V72.6153H369.376Z" fill="#FCA5A5"/>
<path d="M359.17 62.2389H348.961V72.6153H359.17V62.2389Z" fill="#FCA5A5"/>
<path d="M348.961 51.8608H338.753V62.2389H348.961V51.8608Z" fill="#FCA5A5"/>
<path d="M328.547 48.5477L332.998 41.4844H338.753V51.8608H328.547V48.5477Z" fill="#FCA5A5"/>
<path d="M391.641 103.745C391.056 104.523 390.44 105.291 389.792 106.047V103.745H391.641Z" fill="#FCA5A5"/>
<path d="M389.792 93.3667H379.586V103.745H389.792V93.3667Z" fill="#FCA5A5"/>
<path d="M379.586 82.9918H369.376V93.3668H379.586V82.9918Z" fill="#FCA5A5"/>
<path d="M369.392 83.0008H359.185V93.374H369.392V83.0008Z" fill="#FECACA"/>
<path d="M359.185 72.6261H348.975V82.9993H359.185V72.6261Z" fill="#FECACA"/>
<path d="M348.975 62.2513H338.766V72.6261H348.975V62.2513Z" fill="#FECACA"/>
<path d="M338.766 51.8751H328.558V62.2514H338.766V51.8751Z" fill="#FECACA"/>
<path d="M326.469 51.8751L328.558 48.5625V51.8751H326.469Z" fill="#FECACA"/>
<path d="M389.813 106.05C389.337 106.607 388.841 107.154 388.327 107.697C385.906 110.24 383.319 112.38 380.568 114.125H379.605V103.75H389.813V106.05Z" fill="#FECACA"/>
<path d="M379.603 93.374H369.392V103.75H379.603V93.374Z" fill="#FECACA"/>
<path d="M369.4 93.374H359.193V103.75H369.4V93.374Z" fill="#F87171"/>
<path d="M359.193 83.0008H348.985V93.374H359.193V83.0008Z" fill="#F87171"/>
<path d="M348.985 72.626H338.776V82.9992H348.985V72.626Z" fill="#F87171"/>
<path d="M338.776 62.2513H328.57V72.626H338.776V62.2513Z" fill="#F87171"/>
<path d="M320.953 62.2513C321.105 61.842 321.265 61.4312 321.428 61.0235C322.305 58.8556 323.378 56.8 324.611 54.8476L324.599 54.8568L326.479 51.875H328.568V62.2513H320.953Z" fill="#F87171"/>
<path d="M379.609 103.75H369.4V114.125H379.609V103.75Z" fill="#F87171"/>
<path d="M369.403 103.755H359.2V114.135H369.403V103.755Z" fill="#F87171"/>
<path d="M359.2 93.3733H348.995V103.755H359.2V93.3733Z" fill="#F87171"/>
<path d="M348.995 82.9947H338.79V93.3733H348.995V82.9947Z" fill="#F87171"/>
<path d="M338.79 72.6145H328.587V82.9932H338.79V72.6145Z" fill="#F87171"/>
<path d="M318.594 72.6145C318.965 69.0647 319.75 65.5626 320.974 62.2344H328.587V72.6145H318.594Z" fill="#F87171"/>
<path d="M379.609 114.726C376.421 116.62 373.017 117.998 369.403 118.875V114.135H379.609V114.726Z" fill="#F87171"/>
<path d="M400 51.8735H389.798V62.25H400V51.8735Z" fill="#7F1D1D"/>
<path d="M369.397 20.75H359.199V31.1265H369.397V20.75Z" fill="#7F1D1D"/>
<path d="M379.598 41.4985H385.192H389.798V51.8735H379.598V41.4985Z" fill="#7F1D1D"/>
<path d="M369.397 31.125H372.586H378.694H379.598V41.4985H369.397V31.125Z" fill="#7F1D1D"/>
<path fill-rule="evenodd" clip-rule="evenodd" d="M349 16.188L352.662 10.375H359.199V20.75H349V16.188Z" fill="#7F1D1D"/>
<path d="M239.622 49.8065H229.078V80.3907H239.622V49.8065Z" fill="white"/>
<path d="M243.364 49.6941H253.964V54.0061C255.915 51.4521 258.706 49.0136 263.002 49.0136C269.415 49.0136 273.267 53.3241 273.267 60.3039V80.3906H262.725V63.7646C262.725 60.3594 260.99 58.5428 258.425 58.5428C255.86 58.5428 253.964 60.3594 253.964 63.7646V80.3906H243.364V49.6941Z" fill="white"/>
<path d="M307.203 49.049H295.232V57.125H295.211L287.052 67.3423V38.9688H276.508V80.3906H287.153L289.739 77.3271L291.501 80.3906H303.144L296.715 69.3836L307.203 57.125V49.049Z" fill="white"/>
<g opacity="0.25">
<path fill-rule="evenodd" clip-rule="evenodd" d="M390.487 52.5379H399.375L390.487 61.575V52.5379Z" fill="white"/>
<path fill-rule="evenodd" clip-rule="evenodd" d="M390.487 73.288H399.375L390.487 82.3267V73.288Z" fill="white"/>
<path fill-rule="evenodd" clip-rule="evenodd" d="M370.074 73.288H378.965L370.074 82.3267V73.288Z" fill="white"/>
<path fill-rule="evenodd" clip-rule="evenodd" d="M359.869 62.9122H368.757L359.869 71.9524V62.9122Z" fill="white"/>
<path fill-rule="evenodd" clip-rule="evenodd" d="M359.869 73.288H368.757L359.869 82.3267V73.288Z" fill="white"/>
<path fill-rule="evenodd" clip-rule="evenodd" d="M349.663 62.9122H358.554L349.663 71.9524V62.9122Z" fill="white"/>
<path fill-rule="evenodd" clip-rule="evenodd" d="M349.663 73.288H358.554L349.663 82.3267V73.288Z" fill="white"/>
<path fill-rule="evenodd" clip-rule="evenodd" d="M339.459 62.9122H348.351L339.459 71.9524V62.9122Z" fill="white"/>
<path fill-rule="evenodd" clip-rule="evenodd" d="M339.459 73.288H348.351L339.459 82.3267V73.288Z" fill="white"/>
<path fill-rule="evenodd" clip-rule="evenodd" d="M329.254 62.9122H338.146L329.254 71.9509V62.9122Z" fill="white"/>
<path fill-rule="evenodd" clip-rule="evenodd" d="M329.254 73.288H338.146L329.254 82.3267V73.288Z" fill="white"/>
<path fill-rule="evenodd" clip-rule="evenodd" d="M321.625 62.9122H327.938L319.5 71.4954C319.858 68.6025 320.578 65.742 321.625 62.9122Z" fill="white"/>
<path fill-rule="evenodd" clip-rule="evenodd" d="M319.348 73.288H327.938L319.348 82.0205C319.101 79.2061 319.084 76.3071 319.348 73.288Z" fill="white"/>
<path fill-rule="evenodd" clip-rule="evenodd" d="M370.074 94.0397H378.965L370.074 103.081V94.0397Z" fill="white"/>
<path fill-rule="evenodd" clip-rule="evenodd" d="M359.869 83.6638H368.757L359.869 92.7025V83.6638Z" fill="white"/>
<path fill-rule="evenodd" clip-rule="evenodd" d="M359.869 94.0366H368.757L359.869 103.081V94.0366Z" fill="white"/>
<path fill-rule="evenodd" clip-rule="evenodd" d="M349.663 83.6638H358.554L349.663 92.7025V83.6638Z" fill="white"/>
<path fill-rule="evenodd" clip-rule="evenodd" d="M349.663 94.0366H358.554L349.663 103.081V94.0366Z" fill="white"/>
<path fill-rule="evenodd" clip-rule="evenodd" d="M339.459 83.6638H348.351L339.459 92.7025V83.6638Z" fill="white"/>
<path fill-rule="evenodd" clip-rule="evenodd" d="M339.459 94.0366H348.351L339.459 103.081V94.0366Z" fill="white"/>
<path fill-rule="evenodd" clip-rule="evenodd" d="M329.254 83.6638H338.146L329.254 92.7025V83.6638Z" fill="white"/>
<path fill-rule="evenodd" clip-rule="evenodd" d="M329.254 94.0397H338.146L329.254 103.081V94.0397Z" fill="white"/>
<path fill-rule="evenodd" clip-rule="evenodd" d="M319.502 83.6638H328.081L321.127 90.7344C320.351 88.3924 319.794 86.0335 319.502 83.6638Z" fill="white"/>
<path fill-rule="evenodd" clip-rule="evenodd" d="M322.373 94.0397H328.081L324.248 97.9389C323.497 96.7063 322.866 95.4138 322.373 94.0397Z" fill="white"/>
<path fill-rule="evenodd" clip-rule="evenodd" d="M390.487 83.6638H399.032L390.487 92.7025V83.6638Z" fill="white"/>
<path fill-rule="evenodd" clip-rule="evenodd" d="M390.487 94.0397H396.374C395.958 95.5861 394.858 98.379 393.061 100.31L390.488 103.081L390.487 94.0397Z" fill="white"/>
<path fill-rule="evenodd" clip-rule="evenodd" d="M380.274 83.6638H389.167L380.274 92.7025V83.6638Z" fill="white"/>
<path fill-rule="evenodd" clip-rule="evenodd" d="M380.274 94.0397H389.167L380.274 103.081V94.0397Z" fill="white"/>
<path fill-rule="evenodd" clip-rule="evenodd" d="M370.074 83.6638H378.965L370.074 92.7025V83.6638Z" fill="white"/>
<path fill-rule="evenodd" clip-rule="evenodd" d="M370.074 104.412H378.965L370.074 113.457V104.412Z" fill="white"/>
<path fill-rule="evenodd" clip-rule="evenodd" d="M359.869 104.412H368.757L359.869 113.457V104.412Z" fill="white"/>
<path fill-rule="evenodd" clip-rule="evenodd" d="M349.663 104.412H358.554L349.663 113.457V104.412Z" fill="white"/>
<path fill-rule="evenodd" clip-rule="evenodd" d="M339.459 104.412H348.351L339.459 113.457V104.412Z" fill="white"/>
<path fill-rule="evenodd" clip-rule="evenodd" d="M329.254 104.412H338.146L333.256 109.363C331.727 108.245 330.438 106.938 329.254 105.554V104.412Z" fill="white"/>
<path fill-rule="evenodd" clip-rule="evenodd" d="M380.274 104.412H389.167L380.274 113.457V104.412Z" fill="white"/>
<path fill-rule="evenodd" clip-rule="evenodd" d="M370.074 114.973H377.865C375.336 116.185 372.76 117.25 370.074 117.969V114.973Z" fill="white"/>
<path fill-rule="evenodd" clip-rule="evenodd" d="M359.869 114.973H368.757L365.015 118.78C363.268 119.077 361.55 119.232 359.869 119.177V114.973Z" fill="white"/>
<path fill-rule="evenodd" clip-rule="evenodd" d="M349.663 114.973H358.554L354.661 118.931C352.897 118.8 351.221 118.492 349.663 117.952V114.973Z" fill="white"/>
<path fill-rule="evenodd" clip-rule="evenodd" d="M341.136 114.973H348.351L346.195 117.161L341.136 114.973Z" fill="white"/>
<path fill-rule="evenodd" clip-rule="evenodd" d="M380.274 62.9122H389.167L380.274 71.9524V62.9122Z" fill="white"/>
<path fill-rule="evenodd" clip-rule="evenodd" d="M371.774 52.5379H378.965L370.074 61.575V52.9857H371.774V52.5379Z" fill="white"/>
<path fill-rule="evenodd" clip-rule="evenodd" d="M359.869 52.5379H365.23V52.9857H368.315L359.869 61.575V52.5379Z" fill="white"/>
<path fill-rule="evenodd" clip-rule="evenodd" d="M349.663 52.5379H358.554L349.663 61.575V52.5379Z" fill="white"/>
<path fill-rule="evenodd" clip-rule="evenodd" d="M339.459 52.5348H348.351L339.459 61.575V52.5348Z" fill="white"/>
<path fill-rule="evenodd" clip-rule="evenodd" d="M329.254 52.5379H338.146L329.254 61.575V52.5379Z" fill="white"/>
<path fill-rule="evenodd" clip-rule="evenodd" d="M380.274 42.1621H389.167L380.274 51.1992V42.1621Z" fill="white"/>
<path fill-rule="evenodd" clip-rule="evenodd" d="M370.074 42.159H378.965L371.857 49.3881L371.879 46.4244L370.074 46.4137V42.159Z" fill="white"/>
<path fill-rule="evenodd" clip-rule="evenodd" d="M359.869 42.159H368.757L359.869 51.1992V42.159Z" fill="white"/>
<path fill-rule="evenodd" clip-rule="evenodd" d="M349.663 42.159H358.554L349.663 51.1992V42.159Z" fill="white"/>
<path fill-rule="evenodd" clip-rule="evenodd" d="M339.459 42.1621H348.351L339.459 51.1992V42.1621Z" fill="white"/>
<path fill-rule="evenodd" clip-rule="evenodd" d="M329.254 48.6864L333.56 42.1621H338.146L329.254 51.1992V48.6864Z" fill="white"/>
<path fill-rule="evenodd" clip-rule="evenodd" d="M326.777 52.5379H327.795L324.82 55.5569L326.777 52.5379Z" fill="white"/>
<path fill-rule="evenodd" clip-rule="evenodd" d="M370.074 31.7847H378.965L370.074 40.8234V31.7847Z" fill="white"/>
<path fill-rule="evenodd" clip-rule="evenodd" d="M349.663 31.7847H358.554L349.663 40.8234V31.7847Z" fill="white"/>
<path fill-rule="evenodd" clip-rule="evenodd" d="M339.459 31.7847H348.351L339.459 40.8234V31.7847Z" fill="white"/>
<path fill-rule="evenodd" clip-rule="evenodd" d="M349.663 21.4089H358.554L349.663 30.4491V21.4089Z" fill="white"/>
<path fill-rule="evenodd" clip-rule="evenodd" d="M359.869 21.4089H368.757L359.869 30.4491V21.4089Z" fill="white"/>
<path fill-rule="evenodd" clip-rule="evenodd" d="M353.269 11.0346H358.554L349.663 20.0732V16.4064L353.269 11.0346Z" fill="white"/>
<path fill-rule="evenodd" clip-rule="evenodd" d="M360.131 0.921875H368.495L360.131 9.43121V0.921875Z" fill="white"/>
<path fill-rule="evenodd" clip-rule="evenodd" d="M346.566 21.4089H348.741L342.519 27.3362L346.566 21.4089Z" fill="white"/>
<path fill-rule="evenodd" clip-rule="evenodd" d="M370.852 11.8271H378.184L370.852 19.2792V11.8271Z" fill="white"/>
<path fill-rule="evenodd" clip-rule="evenodd" d="M382.207 2.62219H387.241L382.207 7.73702V2.62219Z" fill="white"/>
<path fill-rule="evenodd" clip-rule="evenodd" d="M388.937 14.7968H395.914L388.937 21.8905V14.7968Z" fill="white"/>
<path fill-rule="evenodd" clip-rule="evenodd" d="M391.318 32.6356H398.537L391.318 39.9786V32.6356Z" fill="white"/>
</g>
</svg>