<svg width="296" height="296" viewBox="0 0 296 296" fill="none" xmlns="http://www.w3.org/2000/svg">
<g filter="url(#filter0_dd_11_1166)">
<g clip-path="url(#clip0_11_1166)">
<path d="M20 10C20 4.47715 24.4772 0 30 0H266C271.523 0 276 4.47715 276 10V246C276 251.523 271.523 256 266 256H30C24.4772 256 20 251.523 20 246V10Z" fill="white" fill-opacity="0.01" shape-rendering="crispEdges"/>
<g clip-path="url(#clip1_11_1166)">
<path d="M298.75 -45H-1.5V255.327H298.75V-45Z" fill="#0F172A"/>
<path d="M44.2412 -0.420227H19.6113V24.216H44.2412V-0.420227Z" fill="#450A0A"/>
<path d="M44.2412 25.3891H19.6113V50.0253H44.2412V25.3891Z" fill="#7F1D1D"/>
<path d="M70.0439 25.3891H45.4141V50.0253H70.0439V25.3891Z" fill="#7F1D1D"/>
<path d="M44.2412 51.1984H19.6113V75.8346H44.2412V51.1984Z" fill="#991B1B"/>
<path d="M70.0439 51.1984H45.4141V75.8346H70.0439V51.1984Z" fill="#991B1B"/>
<path d="M95.8467 51.1984H71.2168V75.8346H95.8467V51.1984Z" fill="#7F1D1D"/>
<path d="M44.2412 77.0078H19.6113V101.644H44.2412V77.0078Z" fill="#B91C1C"/>
<path d="M70.0439 77.0078H45.4141V101.644H70.0439V77.0078Z" fill="#B91C1C"/>
<path d="M95.8467 77.0078H71.2168V101.644H95.8467V77.0078Z" fill="#991B1B"/>
<path d="M147.452 77.0078H122.822V101.644H147.452V77.0078Z" fill="#991B1B"/>
<path d="M44.2412 102.817H19.6113V127.453H44.2412V102.817Z" fill="#DC2626"/>
<path d="M70.0439 102.817H45.4141V127.453H70.0439V102.817Z" fill="#DC2626"/>
<path d="M95.8467 102.817H71.2168V127.453H95.8467V102.817Z" fill="#B91C1C"/>
<path d="M121.649 102.817H97.0195V127.453H121.649V102.817Z" fill="#B91C1C"/>
<path d="M44.2412 128.626H19.6113V153.263H44.2412V128.626Z" fill="#EF4444"/>
<path d="M70.0439 128.626H45.4141V153.263H70.0439V128.626Z" fill="#EF4444"/>
<path d="M95.8467 128.626H71.2168V153.263H95.8467V128.626Z" fill="#DC2626"/>
<path d="M121.649 128.626H97.0195V153.263H121.649V128.626Z" fill="#DC2626"/>
<path d="M147.452 128.626H122.822V153.263H147.452V128.626Z" fill="#B91C1C"/>
<path d="M44.2412 154.436H19.6113V179.072H44.2412V154.436Z" fill="#F87171"/>
<path d="M70.0439 154.436H45.4141V179.072H70.0439V154.436Z" fill="#F87171"/>
<path d="M95.8467 154.436H71.2168V179.072H95.8467V154.436Z" fill="#EF4444"/>
<path d="M121.649 154.436H97.0195V179.072H121.649V154.436Z" fill="#EF4444"/>
<path d="M147.452 154.436H122.822V179.072H147.452V154.436Z" fill="#DC2626"/>
<path d="M173.255 154.436H148.625V179.072H173.255V154.436Z" fill="#DC2626"/>
<path d="M44.2412 180.245H19.6113V204.881H44.2412V180.245Z" fill="#FCA5A5"/>
<path d="M70.0439 180.245H45.4141V204.881H70.0439V180.245Z" fill="#FCA5A5"/>
<path d="M95.8467 180.245H71.2168V204.881H95.8467V180.245Z" fill="#F87171"/>
<path d="M121.649 180.245H97.0195V204.881H121.649V180.245Z" fill="#F87171"/>
<path d="M147.452 180.245H122.822V204.881H147.452V180.245Z" fill="#EF4444"/>
<path d="M199.058 180.245H174.428V204.881H199.058V180.245Z" fill="#DC2626"/>
<path d="M44.2412 206.055H19.6113V230.691H44.2412V206.055Z" fill="#FECACA"/>
<path d="M70.0439 206.055H45.4141V230.691H70.0439V206.055Z" fill="#FCA5A5"/>
<path d="M95.8467 206.055H71.2168V230.691H95.8467V206.055Z" fill="#FCA5A5"/>
<path d="M121.649 206.055H97.0195V230.691H121.649V206.055Z" fill="#F87171"/>
<path d="M147.452 206.055H122.822V230.691H147.452V206.055Z" fill="#F87171"/>
<path d="M173.255 206.055H148.625V230.691H173.255V206.055Z" fill="#EF4444"/>
<path d="M199.058 206.055H174.428V230.691H199.058V206.055Z" fill="#EF4444"/>
<path d="M44.2412 231.864H19.6113V256.5H44.2412V231.864Z" fill="#FECACA"/>
<path d="M70.0439 231.864H45.4141V256.5H70.0439V231.864Z" fill="#FECACA"/>
<path d="M95.8467 231.864H71.2168V256.5H95.8467V231.864Z" fill="#FCA5A5"/>
<path d="M121.649 231.864H97.0195V256.5H121.649V231.864Z" fill="#FCA5A5"/>
<path d="M147.452 231.864H122.822V256.5H147.452V231.864Z" fill="#F87171"/>
<path d="M173.255 231.864H148.625V256.5H173.255V231.864Z" fill="#F87171"/>
<path d="M199.058 231.864H174.428V256.5H199.058V231.864Z" fill="#EF4444"/>
<path d="M224.86 231.864H200.23V256.5H224.86V231.864Z" fill="#DC2626"/>
<path d="M45.4141 24.216H70.0439V-0.420227L45.4141 24.216Z" fill="#7F1D1D"/>
<path d="M71.2168 50.0253H95.8467V25.3891L71.2168 50.0253Z" fill="#991B1B"/>
<path d="M97.0195 75.8346H121.649V51.1984L97.0195 75.8346Z" fill="#B91C1C"/>
<path d="M97.0195 101.644H121.649V77.0078L97.0195 101.644Z" fill="#B91C1C"/>
<path d="M122.822 127.453H147.452V102.817L122.822 127.453Z" fill="#DC2626"/>
<path d="M148.625 153.263H173.255V128.626L148.625 153.263Z" fill="#EF4444"/>
<path d="M174.428 179.072H199.058V154.436L174.428 179.072Z" fill="#F87171"/>
<path d="M200.23 204.881H224.86V180.245L200.23 204.881Z" fill="#FCA5A5"/>
<path d="M121.649 -0.420227H97.0195V24.216H121.649V-0.420227Z" fill="#450A0A"/>
<path d="M147.452 -0.420227H122.822V24.216H147.452V-0.420227Z" fill="#7F1D1D"/>
<path d="M199.058 -0.420227H174.428V24.216H199.058V-0.420227Z" fill="#450A0A"/>
<path d="M173.255 25.3891H148.625V50.0253H173.255V25.3891Z" fill="#7F1D1D"/>
<path d="M224.86 25.3891H200.23V50.0253H224.86V25.3891Z" fill="#450A0A"/>
<path d="M147.452 51.1984H122.822V75.8346H147.452V51.1984Z" fill="#991B1B"/>
<path d="M199.058 51.1984H174.428V75.8346H199.058V51.1984Z" fill="#7F1D1D"/>
<path d="M250.663 51.1984H226.033V75.8346H250.663V51.1984Z" fill="#450A0A"/>
<path d="M224.86 77.0078H200.23V101.644H224.86V77.0078Z" fill="#991B1B"/>
<path d="M276.466 77.0078H251.836V101.644H276.466V77.0078Z" fill="#7F1D1D"/>
<path d="M199.058 102.817H174.428V127.453H199.058V102.817Z" fill="#B91C1C"/>
<path d="M250.663 102.817H226.033V127.453H250.663V102.817Z" fill="#991B1B"/>
<path d="M276.466 128.626H251.836V153.263H276.466V128.626Z" fill="#B91C1C"/>
<path d="M224.86 154.436H200.23V179.072H224.86V154.436Z" fill="#DC2626"/>
<path d="M276.466 180.245H251.836V204.881H276.466V180.245Z" fill="#DC2626"/>
<path d="M250.663 206.055H226.033V230.691H250.663V206.055Z" fill="#DC2626"/>
<path d="M276.466 231.864H251.836V256.5H276.466V231.864Z" fill="#EF4444"/>
</g>
</g>
</g>
<defs>
<filter id="filter0_dd_11_1166" x="0" y="0" width="296" height="296" filterUnits="userSpaceOnUse" color-interpolation-filters="sRGB">
<feFlood flood-opacity="0" result="BackgroundImageFix"/>
<feColorMatrix in="SourceAlpha" type="matrix" values="0 0 0 0 0 0 0 0 0 0 0 0 0 0 0 0 0 0 127 0" result="hardAlpha"/>
<feMorphology radius="6" operator="erode" in="SourceAlpha" result="effect1_dropShadow_11_1166"/>
<feOffset dy="8"/>
<feGaussianBlur stdDeviation="5"/>
<feComposite in2="hardAlpha" operator="out"/>
<feColorMatrix type="matrix" values="0 0 0 0 0 0 0 0 0 0 0 0 0 0 0 0 0 0 0.1 0"/>
<feBlend mode="normal" in2="BackgroundImageFix" result="effect1_dropShadow_11_1166"/>
<feColorMatrix in="SourceAlpha" type="matrix" values="0 0 0 0 0 0 0 0 0 0 0 0 0 0 0 0 0 0 127 0" result="hardAlpha"/>
<feMorphology radius="5" operator="erode" in="SourceAlpha" result="effect2_dropShadow_11_1166"/>
<feOffset dy="20"/>
<feGaussianBlur stdDeviation="12.5"/>
<feComposite in2="hardAlpha" operator="out"/>
<feColorMatrix type="matrix" values="0 0 0 0 0 0 0 0 0 0 0 0 0 0 0 0 0 0 0.1 0"/>
<feBlend mode="normal" in2="effect1_dropShadow_11_1166" result="effect2_dropShadow_11_1166"/>
<feBlend mode="normal" in="SourceGraphic" in2="effect2_dropShadow_11_1166" result="shape"/>
</filter>
<clipPath id="clip0_11_1166">
<path d="M20 10C20 4.47715 24.4772 0 30 0H266C271.523 0 276 4.47715 276 10V246C276 251.523 271.523 256 266 256H30C24.4772 256 20 251.523 20 246V10Z" fill="white"/>
</clipPath>
<clipPath id="clip1_11_1166">
<rect width="256" height="256" fill="white" transform="translate(20)"/>
</clipPath>
</defs>
</svg>
