<?xml version="1.0" encoding="UTF-8" standalone="no"?>
<!-- Created with Inkscape (http://www.inkscape.org/) -->

<svg
   width="210mm"
   height="297mm"
   viewBox="0 0 210 297"
   version="1.1"
   id="svg1"
   xml:space="preserve"
   inkscape:version="1.4.2 (f4327f4, 2025-05-13)"
   sodipodi:docname="glint-icon.svg"
   xmlns:inkscape="http://www.inkscape.org/namespaces/inkscape"
   xmlns:sodipodi="http://sodipodi.sourceforge.net/DTD/sodipodi-0.dtd"
   xmlns="http://www.w3.org/2000/svg"
   xmlns:svg="http://www.w3.org/2000/svg"><sodipodi:namedview
     id="namedview1"
     pagecolor="#ffffff"
     bordercolor="#000000"
     borderopacity="0.25"
     inkscape:showpageshadow="2"
     inkscape:pageopacity="0.0"
     inkscape:pagecheckerboard="0"
     inkscape:deskcolor="#d1d1d1"
     inkscape:document-units="mm"
     inkscape:zoom="2.9405047"
     inkscape:cx="380.71695"
     inkscape:cy="489.88188"
     inkscape:window-width="5120"
     inkscape:window-height="1369"
     inkscape:window-x="279"
     inkscape:window-y="-8"
     inkscape:window-maximized="1"
     inkscape:current-layer="layer1" /><defs
     id="defs1" /><g
     inkscape:label="Layer 1"
     inkscape:groupmode="layer"
     id="layer1"><g
       id="g17"
       transform="translate(-0.73168384,-0.92255779)"><path
         style="fill:#a2d6e8"
         d="m 93.084852,160.03314 c -3.493838,-0.73391 -6.620027,-2.99969 -7.40012,-5.36339 -0.414608,-1.25628 -0.181892,-3.0239 0.529673,-4.0232 0.5886,-0.82661 1.538846,-1.09586 1.71945,-0.48719 0.05397,0.1819 0.243387,0.893 0.420918,1.58022 0.665141,2.57474 3.448087,4.38131 7.138948,4.63429 7.413889,0.50816 12.511449,-3.84535 15.482489,-13.22261 0.73371,-2.31576 2.51355,-9.95612 2.49868,-10.72614 -0.007,-0.36661 -0.11373,-0.32636 -0.54474,0.2056 -0.29477,0.3638 -1.57073,1.71297 -2.83547,2.99815 -2.70033,2.74398 -5.61842,4.65267 -8.64953,5.65756 -1.819101,0.60308 -2.581601,0.70404 -5.423954,0.71815 -3.039904,0.0151 -3.424941,-0.0396 -4.7625,-0.67675 -3.537453,-1.68504 -4.947083,-4.6568 -4.684485,-9.87574 0.202118,-4.01692 1.257794,-7.42885 3.378718,-10.91997 4.053854,-6.67277 10.337591,-11.32055 18.239101,-13.49055 2.67708,-0.73521 12.18951,-0.65987 15.47812,0.12259 2.55414,0.60771 3.57188,1.33719 3.57188,2.56019 0,1.17129 -0.82483,5.32508 -3.05134,15.36633 -2.17819,9.82327 -2.39886,10.97962 -2.09533,10.97962 0.32498,0 2.9988,-1.88003 4.47376,-3.1456 0.86683,-0.74378 1.71729,-1.35232 1.88992,-1.35232 0.55303,0 0.64973,0.81519 0.20729,1.74756 -0.50077,1.05529 -3.77411,4.19269 -5.59185,5.35963 -2.29854,1.4756 -2.389,1.57873 -2.98642,3.40477 -3.0107,9.20234 -9.23379,15.6051 -17.1646,17.66018 -2.3204,0.60128 -7.611314,0.75649 -9.838608,0.28862 z m 7.080788,-0.13817 c 8.90742,-1.0243 15.87278,-7.28202 19.42348,-17.45019 l 0.86077,-2.46498 1.74242,-1.12149 c 3.44751,-2.21895 6.37264,-5.11439 6.37264,-6.30796 0,-0.72665 -0.49781,-0.52764 -2.08074,0.83182 -1.77878,1.52765 -4.2622,3.2173 -4.72875,3.2173 -0.18385,0 -0.33426,-0.12641 -0.33426,-0.28092 0,-0.23789 2.22083,-10.47645 3.95639,-18.23992 1.51897,-6.79459 1.71193,-8.67026 0.97563,-9.48385 -0.92829,-1.02576 -5.95457,-1.88004 -11.10817,-1.88799 -8.42511,-0.013 -15.535238,3.01134 -21.175742,9.00723 -4.882616,5.19025 -7.155791,10.47461 -7.163249,16.65211 -0.0031,2.58664 0.09004,3.27697 0.621519,4.60556 0.819173,2.04777 2.414274,3.64088 4.284167,4.27883 1.648855,0.56253 5.9048,0.64236 7.962483,0.14934 4.667102,-1.11822 9.457942,-4.42806 12.597192,-8.703 2.00565,-2.73123 2.05421,-2.41035 0.60552,4.00099 -1.75097,7.74906 -3.43041,11.97105 -6.00212,15.08885 -2.7873,3.37917 -5.33274,4.66033 -9.651022,4.85751 -3.318711,0.15154 -5.168035,-0.2763 -6.882837,-1.59234 -1.488514,-1.14237 -2.097942,-2.01137 -2.488047,-3.54776 -0.371202,-1.46194 -0.765835,-1.5962 -1.560455,-0.53089 -0.693317,0.92949 -0.729079,3.09001 -0.07186,4.34132 1.897097,3.61199 7.15109,5.3502 13.845041,4.58043 z m -0.296957,-23.47304 c -0.978013,-0.27762 -1.762038,-0.96301 -2.340094,-2.04569 -0.469632,-0.87961 -0.576093,-1.50821 -0.564488,-3.33302 0.04557,-7.16512 6.072169,-16.62258 12.644859,-19.84339 2.62266,-1.28519 4.98785,-1.90714 6.84624,-1.8003 l 1.39412,0.0802 -0.0688,1.30273 c -0.19535,3.70086 -2.74752,12.3304 -4.74009,16.02747 -2.98943,5.54668 -7.50592,9.45316 -11.18188,9.67165 -0.80947,0.0481 -1.70493,0.0213 -1.989907,-0.0596 z m 4.883767,-1.07522 c 0.92409,-0.44627 2.28684,-1.52884 3.73382,-2.96615 3.44727,-3.42422 5.3962,-7.06689 7.25221,-13.55485 1.00998,-3.53053 2.02372,-8.66203 1.7869,-9.0452 -0.25328,-0.40982 -3.6631,0.0663 -5.68099,0.7933 -4.59985,1.65715 -8.29692,4.99427 -11.28405,10.18542 -1.733818,3.01311 -2.569598,5.20048 -3.104769,8.12567 -0.528912,2.89098 -0.262348,4.79895 0.856182,6.12825 1.251659,1.48751 3.780047,1.61846 6.440697,0.33356 z"
         id="path23" /><path
         style="fill:#60cadf"
         d="m 87.520781,157.03853 c -0.329108,-0.41965 -0.319749,-0.429 0.0999,-0.0999 0.440729,0.34565 0.580887,0.56292 0.363126,0.56292 -0.05494,0 -0.263302,-0.20836 -0.463021,-0.46302 z m 8.979973,-0.24689 c 0.190996,-0.0764 0.419199,-0.067 0.507118,0.0209 0.08792,0.0879 -0.06835,0.15045 -0.347266,0.13896 -0.308224,-0.0127 -0.370919,-0.0754 -0.159852,-0.15985 z m 16.189196,-3.12655 c 0.79042,-0.80036 1.49666,-1.45521 1.56942,-1.45521 0.0728,0 -0.51442,0.65485 -1.30484,1.45521 -0.79042,0.80036 -1.49666,1.45521 -1.56942,1.45521 -0.0728,0 0.51441,-0.65485 1.30484,-1.45521 z m -7.14375,-0.23219 c 0,-0.0549 0.20836,-0.2633 0.46302,-0.46302 0.41964,-0.3291 0.429,-0.31975 0.0999,0.0999 -0.34564,0.44073 -0.56291,0.58088 -0.56291,0.36312 z m 1.32291,-1.5875 c 0,-0.0549 0.20836,-0.2633 0.46302,-0.46302 0.41965,-0.3291 0.42901,-0.31975 0.0999,0.0999 -0.34564,0.44073 -0.56292,0.58089 -0.56292,0.36312 z m 7.67292,-0.26458 c 0,-0.0549 0.20836,-0.2633 0.46302,-0.46302 0.41964,-0.32911 0.429,-0.31975 0.0999,0.0999 -0.34565,0.44073 -0.56292,0.58089 -0.56292,0.36313 z m 2.95447,-4.72875 c 0.46498,-0.90951 1.27752,-2.9002 1.80565,-4.42377 l 0.96024,-2.77013 1.45068,-0.84767 c 1.83162,-1.07026 5.41234,-4.18819 6.10952,-5.31989 0.71815,-1.16573 0.18953,-1.09163 -1.18178,0.16567 -1.45556,1.33453 -4.3731,3.20777 -4.99605,3.20777 -0.6887,0 -0.65001,-0.35489 0.71573,-6.56469 2.66764,-12.12937 3.02316,-13.78757 3.54487,-16.53364 0.91163,-4.79846 0.79989,-5.1295 -1.97062,-5.8379 -5.26651,-1.34662 -12.26934,-1.26093 -17.63588,0.21579 -0.4713,0.12969 -0.52137,0.10779 -0.20838,-0.0911 1.01664,-0.64604 5.81145,-1.35088 9.15457,-1.34572 5.1536,0.008 10.17988,0.86223 11.10817,1.88799 0.7363,0.81359 0.54334,2.68926 -0.97563,9.48385 -1.73556,7.76347 -3.95639,18.00203 -3.95639,18.23992 0,0.15451 0.15041,0.28092 0.33426,0.28092 0.46655,0 2.94997,-1.68965 4.72875,-3.2173 1.58293,-1.35946 2.08074,-1.55847 2.08074,-0.83182 0,1.19357 -2.92513,4.08901 -6.37264,6.30796 l -1.74242,1.12149 -0.85982,2.46227 c -0.83223,2.38324 -2.53549,6.06365 -2.80622,6.06365 -0.073,0 0.24767,-0.74415 0.71265,-1.65365 z m -5.844,-4.85069 c 0.0127,-0.30823 0.0754,-0.37092 0.15985,-0.15986 0.0764,0.191 0.067,0.4192 -0.0209,0.50712 -0.0879,0.0879 -0.15046,-0.0683 -0.13897,-0.34726 z m -16.623491,-0.29976 c 0.400182,-0.0606 1.055026,-0.0606 1.455208,0 0.400183,0.0606 0.07276,0.11023 -0.727604,0.11023 -0.800364,0 -1.127786,-0.0496 -0.727604,-0.11023 z m 17.152661,-1.55233 c 0.0127,-0.30822 0.0754,-0.37092 0.15985,-0.15985 0.0764,0.191 0.067,0.4192 -0.0209,0.50712 -0.0879,0.0879 -0.15045,-0.0683 -0.13896,-0.34727 z m 0.26458,-1.05833 c 0.0127,-0.30823 0.0754,-0.37092 0.15985,-0.15985 0.0764,0.19099 0.067,0.4192 -0.0209,0.50711 -0.0879,0.0879 -0.15046,-0.0684 -0.13897,-0.34726 z m 0.28547,-1.16858 c 0,-0.3638 0.0601,-0.51263 0.13345,-0.33073 0.0734,0.1819 0.0734,0.47956 0,0.66146 -0.0734,0.1819 -0.13345,0.0331 -0.13345,-0.33073 z m -2.95219,-2.51354 c 0.93748,-0.94588 1.76404,-1.71979 1.8368,-1.71979 0.0728,0 -0.63474,0.77391 -1.57222,1.71979 -0.93747,0.94589 -1.76403,1.71979 -1.83679,1.71979 -0.0728,0 0.63473,-0.7739 1.57221,-1.71979 z m 3.28062,1.19063 c 0.0492,-0.36381 0.30935,-1.69747 0.57807,-2.9637 0.52497,-2.47376 0.37544,-3.14739 -0.4478,-2.01726 -1.15731,1.58872 -1.52315,1.83901 -0.60936,0.41689 1.76607,-2.74851 2.19574,-1.55495 1.0239,2.84427 -0.34886,1.30969 -0.59403,2.0836 -0.54481,1.7198 z m -8.83687,-0.63315 c 0,-0.0572 0.18478,-0.1749 0.41062,-0.26156 0.23546,-0.0904 0.34166,-0.046 0.24897,0.10399 -0.15538,0.2514 -0.65959,0.37185 -0.65959,0.15757 z m -17.420724,-1.7481 c 0,-0.36381 0.06005,-0.51263 0.133452,-0.33073 0.0734,0.1819 0.0734,0.47955 0,0.66146 -0.0734,0.1819 -0.133452,0.0331 -0.133452,-0.33073 z m 20.198844,0 c 0.26339,-0.29105 0.53843,-0.52917 0.61119,-0.52917 0.0728,0 -0.0832,0.23812 -0.3466,0.52917 -0.26339,0.29104 -0.53842,0.52916 -0.61118,0.52916 -0.0728,0 0.0832,-0.23812 0.34659,-0.52916 z m 1.85209,-1.5875 c 0.56839,-0.58209 1.09296,-1.05834 1.16572,-1.05834 0.0728,0 -0.33275,0.47625 -0.90114,1.05834 -0.56839,0.58208 -1.09296,1.05833 -1.16573,1.05833 -0.0728,0 0.33276,-0.47625 0.90115,-1.05833 z M 96.611747,131.3078 c 0,-0.50932 0.05445,-0.71768 0.121,-0.46302 0.06655,0.25466 0.06655,0.67138 0,0.92604 -0.06655,0.25466 -0.121,0.0463 -0.121,-0.46302 z m -9.809191,-0.52917 c 0,-0.3638 0.06005,-0.51263 0.133452,-0.33073 0.0734,0.1819 0.0734,0.47956 0,0.66146 -0.0734,0.1819 -0.133452,0.0331 -0.133452,-0.33073 z m 24.114964,-0.52916 c 1.53213,-1.9886 3.27799,-5.51626 4.3866,-8.86355 1.19045,-3.59437 2.37395,-8.66183 2.47644,-10.60351 l 0.0688,-1.30273 -1.39412,-0.0802 c -1.8734,-0.10771 -4.22414,0.51626 -6.94025,1.84217 -1.90414,0.92953 -2.67491,1.52617 -5.02709,3.89138 -1.52797,1.53643 -2.40376,2.32171 -1.94621,1.74505 1.31998,-1.66358 4.08214,-4.2059 5.65818,-5.20784 2.67253,-1.69903 4.85639,-2.40381 7.53282,-2.431 l 2.38125,-0.0242 -0.0676,1.70851 c -0.0896,2.26614 -1.70175,8.74801 -2.99698,12.04982 -1.27704,3.25546 -2.79297,6.00989 -4.07724,7.40834 l -0.97193,1.05833 z m -14.060797,-1.05834 c 0,-0.3638 0.06005,-0.51263 0.133452,-0.33073 0.0734,0.1819 0.0734,0.47956 0,0.66146 -0.0734,0.1819 -0.133452,0.0331 -0.133452,-0.33073 z m 1.810307,-5.91957 c 0,-0.28574 1.050981,-2.28251 1.20138,-2.28251 0.07276,0 -0.122889,0.50602 -0.434775,1.12448 -0.613347,1.21625 -0.766605,1.44776 -0.766605,1.15803 z m -6.879167,-5.02824 c 0,-0.0549 0.20836,-0.2633 0.463021,-0.46302 0.419644,-0.32911 0.429002,-0.31975 0.0999,0.0999 -0.345644,0.44072 -0.562916,0.58088 -0.562916,0.36312 z m 1.058333,-1.29579 c 0,-0.04 0.922735,-0.96275 2.050521,-2.05052 l 2.050521,-1.97775 -1.977753,2.05052 c -1.836893,1.90448 -2.123289,2.17124 -2.123289,1.97775 z m 4.233334,-3.99587 c 0,-0.055 0.208359,-0.26331 0.463021,-0.46303 0.419644,-0.3291 0.429002,-0.31974 0.09989,0.0999 -0.345643,0.44073 -0.562915,0.58089 -0.562915,0.36313 z m 1.236428,-0.9796 c 0.328266,-0.39736 1.938572,-1.41043 1.938572,-1.21959 0,0.0617 -0.506016,0.44582 -1.124479,0.8537 -0.618464,0.40789 -0.984805,0.57254 -0.814093,0.36589 z m 2.732322,-1.6967 c 0,-0.17923 2.1491,-1.24832 2.26879,-1.12863 0.0555,0.0555 -0.43232,0.35988 -1.08397,0.67648 -0.65165,0.3166 -1.18482,0.52007 -1.18482,0.45215 z m 2.91042,-1.4125 c 0.21828,-0.13487 0.69453,-0.32484 1.05833,-0.42215 0.45971,-0.12296 0.54041,-0.10214 0.26458,0.0683 -0.21828,0.13487 -0.69453,0.32484 -1.05833,0.42215 -0.45971,0.12296 -0.54041,0.10214 -0.26458,-0.0683 z"
         id="path22" /><path
         style="fill:#58b3e7"
         d="m 95.227446,159.99067 c -0.363802,-0.0627 -1.371865,-0.24278 -2.24014,-0.40013 -5.534626,-1.003 -8.970106,-5.96232 -6.194283,-8.94181 0.660992,-0.7095 0.84412,-0.52857 1.142112,1.12834 0.248655,1.3826 2.131822,3.37059 3.928461,4.14714 2.627817,1.1358 6.722135,1.13596 9.757274,3.6e-4 2.36934,-0.88648 4.53955,-2.7084 6.64883,-5.58177 0.45634,-0.62166 0.45634,-0.61202 0,0.25113 -0.90507,1.71191 -3.58766,4.14859 -5.66673,5.14725 -5.880839,2.82482 -13.531287,0.94155 -14.834072,-3.65163 -0.422027,-1.48792 -0.624233,-1.63063 -1.157425,-0.81687 -0.986216,1.50515 -0.257529,4.3359 1.495951,5.81136 2.197819,1.84934 5.024356,2.63596 9.368981,2.60737 3.930755,-0.0259 6.404895,-0.61935 9.921875,-2.38 2.04225,-1.02238 2.9387,-1.68063 4.78103,-3.51065 1.24712,-1.23879 2.59426,-2.66905 2.99364,-3.17838 0.43691,-0.55718 0.37683,-0.41263 -0.15083,0.36291 -0.48233,0.70892 -1.83911,2.1972 -3.01507,3.30729 -3.68362,3.4773 -8.26555,5.40646 -13.480769,5.67588 -1.450557,0.0749 -2.935032,0.0849 -3.298835,0.0222 z M 109.11807,148.7703 c 0.22576,-0.43656 0.47,-0.79375 0.54276,-0.79375 0.0728,0 -0.0524,0.35719 -0.27818,0.79375 -0.22575,0.43656 -0.46999,0.79375 -0.54275,0.79375 -0.0728,0 0.0524,-0.35719 0.27817,-0.79375 z m 7.01146,0.26458 c 0.15576,-0.29104 0.34273,-0.52916 0.41549,-0.52916 0.0728,0 0.005,0.23812 -0.15091,0.52916 -0.15576,0.29104 -0.34273,0.52917 -0.41549,0.52917 -0.0728,0 -0.005,-0.23813 0.15091,-0.52917 z m -6.3419,-1.45521 c 0,-0.14552 0.11542,-0.44317 0.25648,-0.66145 0.14107,-0.21829 0.25648,-0.27782 0.25648,-0.1323 0,0.14552 -0.11541,0.44318 -0.25648,0.66146 -0.14106,0.21828 -0.25648,0.27781 -0.25648,0.13229 z m 0.79375,-1.85208 c 0,-0.14552 0.11542,-0.44318 0.25648,-0.66146 0.14107,-0.21828 0.25648,-0.27781 0.25648,-0.13229 0,0.14552 -0.11541,0.44318 -0.25648,0.66146 -0.14106,0.21828 -0.25648,0.27781 -0.25648,0.13229 z m -18.266063,-4.34825 c -1.153492,-0.35088 -2.429827,-1.10277 -3.104555,-1.8289 -0.649788,-0.6993 -1.666782,-2.47677 -1.644539,-2.87429 0.0064,-0.11494 0.257957,0.26727 0.558945,0.84936 0.733089,1.41772 1.72117,2.44502 3.001237,3.12035 0.842284,0.44437 1.733487,0.59231 4.365625,0.72472 l 3.307291,0.16637 -2.910416,0.0221 c -1.600729,0.0121 -3.208844,-0.0687 -3.573588,-0.17967 z m 6.814734,-0.1926 c 0.181901,-0.0734 0.479557,-0.0734 0.661458,0 0.181901,0.0734 0.03307,0.13345 -0.330729,0.13345 -0.363802,0 -0.51263,-0.06 -0.330729,-0.13345 z m 1.339449,-0.2701 c 0.191,-0.0764 0.4192,-0.067 0.50712,0.0209 0.0879,0.0879 -0.0683,0.15045 -0.34726,0.13896 -0.30823,-0.0127 -0.37092,-0.0754 -0.15986,-0.15985 z m 2.16628,-0.7453 c 0.3638,-0.20797 0.78052,-0.37812 0.92604,-0.37812 0.14552,0 -0.0331,0.17015 -0.39687,0.37812 -0.36381,0.20797 -0.78052,0.37812 -0.92605,0.37812 -0.14552,0 0.0331,-0.17015 0.39688,-0.37812 z m 1.32292,-0.51055 c 0,-0.0728 0.23812,-0.25973 0.52916,-0.41549 0.29104,-0.15576 0.52917,-0.22367 0.52917,-0.15091 0,0.0728 -0.23813,0.25973 -0.52917,0.41549 -0.29104,0.15576 -0.52916,0.22367 -0.52916,0.15091 z m 1.32291,-0.76225 c 0,-0.0616 0.50602,-0.44581 1.12448,-0.8537 0.61847,-0.40788 0.98481,-0.57253 0.81409,-0.36589 -0.32826,0.39737 -1.93857,1.41044 -1.93857,1.21959 z m 2.38125,-1.57809 c 0,-0.04 0.92274,-0.96276 2.05052,-2.05052 l 2.05052,-1.97776 -1.97775,2.05053 c -1.83689,1.90447 -2.12329,2.17124 -2.12329,1.97775 z m -7.47448,-0.63163 c 0.18191,-0.0734 0.47956,-0.0734 0.66146,0 0.1819,0.0734 0.0331,0.13345 -0.33073,0.13345 -0.3638,0 -0.51263,-0.06 -0.33073,-0.13345 z m 1.72483,-0.008 c 0.25743,-0.0671 0.61462,-0.0627 0.79375,0.01 0.17913,0.0725 -0.0315,0.12736 -0.46806,0.12197 -0.43656,-0.005 -0.58312,-0.0647 -0.32569,-0.13177 z m -3.290659,-0.53328 c -0.714811,-0.44348 -1.807605,-2.10533 -1.807605,-2.74889 0,-0.19293 0.267891,0.17951 0.595313,0.82763 0.327422,0.64813 0.999873,1.44726 1.494336,1.77586 1.028662,0.6836 0.786593,0.80839 -0.282044,0.1454 z m -11.42768,-0.39736 c -0.08926,-0.33319 -0.150863,-0.90346 -0.136906,-1.26726 0.01495,-0.38978 0.119943,-0.17929 0.255616,0.51247 0.243041,1.2392 0.157222,1.78486 -0.11871,0.75479 z m 17.557579,0.20657 c 0,-0.0728 0.23812,-0.25974 0.52916,-0.4155 0.29104,-0.15576 0.52917,-0.22367 0.52917,-0.15091 0,0.0728 -0.23813,0.25974 -0.52917,0.4155 -0.29104,0.15576 -0.52916,0.22367 -0.52916,0.15091 z m 2.51354,-1.73841 c 0.26339,-0.29105 0.53842,-0.52917 0.61118,-0.52917 0.0728,0 -0.0832,0.23812 -0.3466,0.52917 -0.26339,0.29104 -0.53842,0.52916 -0.61118,0.52916 -0.0728,0 0.0832,-0.23812 0.3466,-0.52916 z m -20.429536,-1.7198 c 0.002,-0.7276 0.05337,-0.99385 0.114186,-0.59167 0.06081,0.40218 0.05919,0.9975 -0.0036,1.32292 -0.0628,0.32542 -0.11256,-0.004 -0.110574,-0.73125 z m 22.149326,0.26459 c 0.34177,-0.3638 0.68094,-0.66146 0.7537,-0.66146 0.0728,0 -0.14734,0.29766 -0.48912,0.66146 -0.34177,0.3638 -0.68094,0.66146 -0.7537,0.66146 -0.0728,0 0.14735,-0.29766 0.48912,-0.66146 z M 96.571251,132.4765 c 0.0127,-0.30823 0.07539,-0.37092 0.159853,-0.15986 0.07643,0.191 0.06703,0.4192 -0.02089,0.50712 -0.08792,0.0879 -0.150453,-0.0684 -0.138965,-0.34726 z m 13.472859,-1.00389 c 0,-0.0549 0.20836,-0.2633 0.46302,-0.46302 0.41965,-0.32911 0.42901,-0.31975 0.0999,0.0999 -0.34564,0.44073 -0.56292,0.58089 -0.56292,0.36313 z M 87.086747,129.985 c 0,-0.50932 0.05445,-0.71768 0.121,-0.46302 0.06655,0.25466 0.06655,0.67138 0,0.92604 -0.06655,0.25467 -0.121,0.0463 -0.121,-0.46302 z m 9.505392,0 c 0,-0.3638 0.06005,-0.51263 0.133453,-0.33073 0.0734,0.1819 0.0734,0.47956 0,0.66146 -0.0734,0.1819 -0.133453,0.0331 -0.133453,-0.33073 z m -9.260416,-1.5875 c 0,-0.3638 0.06005,-0.51263 0.133452,-0.33073 0.0734,0.1819 0.0734,0.47956 0,0.66146 -0.0734,0.1819 -0.133452,0.0331 -0.133452,-0.33073 z m 9.504112,-0.15434 c 0.01269,-0.30822 0.07539,-0.37092 0.159852,-0.15985 0.07643,0.191 0.06703,0.4192 -0.02089,0.50712 -0.08792,0.0879 -0.150453,-0.0683 -0.138964,-0.34727 z m -9.260417,-1.05833 c 0.0127,-0.30823 0.07539,-0.37092 0.159852,-0.15985 0.07643,0.19099 0.06703,0.4192 -0.02089,0.50711 -0.08792,0.0879 -0.150453,-0.0683 -0.138964,-0.34726 z m 9.525,0 c 0.0127,-0.30823 0.07539,-0.37092 0.159852,-0.15985 0.07643,0.19099 0.06703,0.4192 -0.02089,0.50711 -0.08792,0.0879 -0.150453,-0.0683 -0.138964,-0.34726 z m 0.516382,-1.83004 c 0,-0.14552 0.115416,-0.44317 0.25648,-0.66145 0.141064,-0.21829 0.25648,-0.27782 0.25648,-0.1323 0,0.14553 -0.115416,0.44318 -0.25648,0.66146 -0.141064,0.21828 -0.25648,0.27782 -0.25648,0.13229 z m -9.003937,-1.28636 c 0,-0.29771 1.50722,-3.16454 1.966659,-3.74072 0.232075,-0.29104 -0.07589,0.42333 -0.68436,1.5875 -1.193077,2.28267 -1.282299,2.43249 -1.282299,2.15322 z m 9.533103,-0.0365 c 0,-0.14552 0.115416,-0.44318 0.25648,-0.66146 0.141065,-0.21828 0.256481,-0.27781 0.256481,-0.13229 0,0.14552 -0.115416,0.44318 -0.256481,0.66146 -0.141064,0.21828 -0.25648,0.27781 -0.25648,0.13229 z m -5.631181,-6.35 c 0.596609,-0.72761 1.895175,-2.09682 2.885702,-3.04271 1.470429,-1.40416 1.367257,-1.25848 -0.562152,0.79375 -3.269697,3.47784 -3.56768,3.76626 -2.32355,2.24896 z m 9.327245,-0.23219 c 0,-0.0549 0.20836,-0.2633 0.46302,-0.46302 0.41964,-0.32911 0.429,-0.31975 0.0999,0.0999 -0.34565,0.44072 -0.56292,0.58088 -0.56292,0.36312 z m 2.38125,-2.67823 c 0.79042,-0.80036 1.49666,-1.45521 1.56942,-1.45521 0.0728,0 -0.51441,0.65485 -1.30484,1.45521 -0.79042,0.80037 -1.49666,1.45521 -1.56942,1.45521 -0.0728,0 0.51442,-0.65484 1.30484,-1.45521 z m -6.879167,-1.81968 c 0,-0.055 0.20836,-0.26331 0.463021,-0.46303 0.419644,-0.3291 0.429002,-0.31974 0.09989,0.0999 -0.345644,0.44073 -0.562916,0.58089 -0.562916,0.36313 z"
         id="path21" /><path
         style="fill:#31cbd9"
         d="m 120.23742,139.49881 c 0.0887,-0.14359 0.6171,-0.49358 1.17412,-0.77775 1.21615,-0.62043 1.86174,-1.22829 1.86174,-1.75293 0,-0.30091 -0.11414,-0.3262 -0.51177,-0.11339 -0.28148,0.15064 -0.80679,0.27389 -1.16737,0.27389 -0.55369,0 -0.67964,-0.15423 -0.81029,-0.99218 -0.0851,-0.54571 -0.11603,-1.21623 -0.0688,-1.49005 0.16886,-0.97848 -0.36975,-3.35124 -1.02861,-4.53136 -0.36865,-0.66032 -0.59514,-1.32216 -0.5033,-1.47076 0.0918,-0.14859 -0.0219,-0.5584 -0.25271,-0.91068 -0.23082,-0.35228 -0.41968,-0.83113 -0.41968,-1.06409 0,-0.23297 -0.14461,-0.68365 -0.32135,-1.0015 -0.17675,-0.31786 -0.34139,-0.87558 -0.36588,-1.23938 -0.11414,-1.69599 -0.46519,-3.41266 -0.67175,-3.285 -0.12569,0.0777 -0.22852,-0.11095 -0.22852,-0.41916 0,-0.30822 -0.11083,-0.49191 -0.24628,-0.40819 -0.13546,0.0837 -0.19266,0.44793 -0.12712,0.80937 0.0856,0.47209 0.002,0.65715 -0.29755,0.65715 -0.25062,0 -0.63687,0.52976 -0.96908,1.32915 -0.85153,2.04901 -0.82126,1.40458 0.0382,-0.81398 1.06948,-2.76057 2.64416,-9.33376 2.72485,-11.37437 l 0.0676,-1.70851 -1.32291,-0.17116 -1.32292,-0.17117 1.45521,0.006 c 2.159,0.008 2.22372,-0.01 2.54848,-0.71024 0.24822,-0.53537 0.22557,-0.66953 -0.1323,-0.78341 -1.0345,-0.32919 3.07515,0.14768 4.54975,0.52794 2.82211,0.72775 2.93025,1.04169 2.01615,5.85311 -0.52171,2.74607 -0.87723,4.40427 -3.54487,16.53364 -1.36574,6.2098 -1.40443,6.56469 -0.71573,6.56469 0.62295,0 3.54049,-1.87324 4.99605,-3.20777 0.61521,-0.56406 1.25198,-1.02556 1.41504,-1.02556 0.60961,0 -0.82323,1.7737 -2.88544,3.57187 -1.90428,1.66046 -5.34151,3.95721 -4.93299,3.29622 z m 3.9619,-2.89934 c 0.0899,-0.14552 0.0445,-0.26459 -0.10106,-0.26459 -0.14552,0 -0.33817,0.11907 -0.42811,0.26459 -0.0899,0.14552 -0.0445,0.26458 0.10107,0.26458 0.14552,0 0.33816,-0.11906 0.4281,-0.26458 z m -9.88584,-5.20348 c -0.0198,-0.46081 -0.18486,-0.8979 -0.36676,-0.9713 -0.25905,-0.10452 -0.25725,-0.13798 0.008,-0.15434 0.43574,-0.0268 0.66085,0.56661 0.51167,1.34894 -0.0916,0.48021 -0.12506,0.4314 -0.15321,-0.2233 z m -0.94506,-4.66366 c 0.0994,-0.26094 0.2473,-0.40779 0.32876,-0.32632 0.0815,0.0815 1.7e-4,0.29495 -0.18065,0.47443 -0.26131,0.25936 -0.2917,0.22897 -0.14811,-0.14811 z m -0.0947,-19.69755 c 0.9759,-0.0508 2.64278,-0.0511 3.70417,-7.5e-4 1.06139,0.0503 0.26293,0.0919 -1.77436,0.0923 -2.03729,4.2e-4 -2.90571,-0.0408 -1.92981,-0.0915 z"
         id="path20" /><path
         style="fill:#2bc3e3"
         d="m 116.89532,147.25649 c 0.45194,-0.90536 0.82171,-1.83193 0.82171,-2.05906 0,-0.68963 -2.21528,-4.35259 -2.7344,-4.52132 -0.36447,-0.11847 -0.4495,-0.3329 -0.34123,-0.86044 0.0793,-0.38647 0.0787,-0.55142 -0.001,-0.36656 -0.099,0.22847 -0.32507,0.10798 -0.70596,-0.37624 l -0.56033,-0.71234 -0.32994,0.77311 c -0.54454,1.27599 -0.40292,0.37547 0.5863,-3.7279 0.51705,-2.1448 0.90401,-4.14329 0.85989,-4.44109 -0.14271,-0.96341 -0.7058,-0.78231 -1.59339,0.51247 -0.47743,0.69647 -1.33101,1.74696 -1.89683,2.33443 l -1.02877,1.06812 0.93507,-1.09474 c 1.01906,-1.19308 1.48786,-2.61444 1.01746,-3.08485 -0.21139,-0.21139 -0.55773,-0.0416 -1.2679,0.62146 l -0.97707,0.9123 1.07395,-1.32292 c 1.47749,-1.81999 2.66618,-3.80349 3.96336,-6.61341 0.61896,-1.34077 1.28483,-2.41996 1.52295,-2.46827 0.28905,-0.0587 0.3865,-0.28785 0.30754,-0.7233 -0.0636,-0.3506 -0.005,-0.70594 0.13069,-0.78966 0.13545,-0.0837 0.24628,0.1 0.24628,0.40819 0,0.30821 0.10283,0.49684 0.22852,0.41916 0.20656,-0.12766 0.55761,1.58901 0.67175,3.285 0.0245,0.3638 0.18913,0.92152 0.36588,1.23938 0.17674,0.31785 0.32135,0.76853 0.32135,1.0015 0,0.23296 0.18886,0.71181 0.41968,1.06409 0.23083,0.35228 0.34454,0.76209 0.25271,0.91068 -0.0918,0.1486 0.13465,0.81044 0.5033,1.47076 0.65886,1.18012 1.19747,3.55288 1.02861,4.53136 -0.0473,0.27382 -0.0163,0.94434 0.0688,1.49005 0.13065,0.83795 0.2566,0.99218 0.81029,0.99218 0.36058,0 0.88589,-0.12325 1.16737,-0.27389 0.38277,-0.20485 0.51075,-0.18818 0.50772,0.0662 -0.007,0.57716 -0.34365,0.91371 -1.71574,1.71458 -1.30122,0.75951 -1.3384,0.81748 -2.26697,3.53527 -0.92787,2.71575 -2.39541,5.94687 -2.93736,6.46727 -0.15155,0.14552 0.0942,-0.47616 0.54616,-1.38152 z m -4.44907,-6.84261 c 0.0127,-0.30823 0.0754,-0.37092 0.15985,-0.15986 0.0764,0.191 0.067,0.4192 -0.0209,0.50712 -0.0879,0.0879 -0.15046,-0.0684 -0.13897,-0.34726 z m 11.2239,-3.81441 c 0.0899,-0.14552 0.28259,-0.26459 0.42811,-0.26459 0.14552,0 0.191,0.11907 0.10106,0.26459 -0.0899,0.14552 -0.28258,0.26458 -0.4281,0.26458 -0.14552,0 -0.191,-0.11906 -0.10107,-0.26458 z m -16.00729,-2.48115 c 0,-0.0549 0.20836,-0.2633 0.46302,-0.46302 0.41965,-0.32911 0.42901,-0.31975 0.0999,0.0999 -0.34564,0.44072 -0.56292,0.58088 -0.56292,0.36312 z m -5.00184,-17.84504 c 0.49544,-0.62914 1.08656,-1.42766 1.3136,-1.7745 0.22704,-0.34683 0.71967,-0.87199 1.09474,-1.16702 0.37508,-0.29503 0.75506,-0.82771 0.84441,-1.18372 0.10167,-0.40505 0.38498,-0.67892 0.75704,-0.73179 0.46346,-0.0659 0.64695,-0.33365 0.83204,-1.21434 0.13061,-0.62142 0.16962,-1.1977 0.0867,-1.28062 -0.15088,-0.15087 -3.03086,0.23723 -4.02773,0.54277 -0.29104,0.0892 0.007,-0.087 0.66146,-0.39144 2.69888,-1.25497 4.70607,-1.63664 9.32141,-1.77246 2.43464,-0.0717 4.83302,-0.054 5.32974,0.0392 0.85049,0.15955 0.88549,0.20747 0.60047,0.8221 -0.16646,0.35897 -0.42172,0.65907 -0.56725,0.6669 -0.14552,0.008 -1.21861,0.0516 -2.38465,0.0973 -4.78252,0.18749 -9.16499,2.43218 -13.13184,6.72609 -0.89702,0.97098 -1.22558,1.25067 -0.73014,0.62153 z m 9.07855,-7.85194 c 0.42935,-0.65526 0.42592,-0.66146 -0.36644,-0.66146 -0.59922,0 -0.79985,0.12167 -0.79985,0.48507 0,1.01091 0.56364,1.09616 1.16629,0.17639 z m -12.807957,3.4582 c 0,-0.0728 0.238125,-0.25973 0.529167,-0.41549 0.291041,-0.15576 0.529166,-0.22367 0.529166,-0.15091 0,0.0728 -0.238125,0.25973 -0.529166,0.41549 -0.291042,0.15576 -0.529167,0.22367 -0.529167,0.15091 z m 1.322917,-0.79878 c 0,-0.0728 0.35719,-0.317 0.79375,-0.54275 0.43656,-0.22576 0.79375,-0.35093 0.79375,-0.27817 0,0.0728 -0.35719,0.317 -0.79375,0.54275 -0.43656,0.22576 -0.79375,0.35093 -0.79375,0.27817 z m 2.04611,-1.23704 c 0.17948,-0.18082 0.39297,-0.26212 0.47443,-0.18065 0.0815,0.0815 -0.0654,0.2294 -0.32632,0.32876 -0.37708,0.14359 -0.40747,0.1132 -0.14811,-0.14811 z"
         id="path19" /><path
         style="fill:#25b3ec"
         d="m 96.488956,159.69105 c 0.475549,-0.0589 1.189924,-0.0577 1.5875,0.003 0.397576,0.0604 0.0085,0.10855 -0.864635,0.10706 -0.873125,-0.001 -1.198414,-0.0509 -0.722865,-0.10976 z m 3.699424,-0.24806 c 0.18191,-0.0734 0.47956,-0.0734 0.66146,0 0.1819,0.0734 0.0331,0.13345 -0.33073,0.13345 -0.3638,0 -0.51263,-0.06 -0.33073,-0.13345 z m -5.288578,-2.39315 c 0.329119,-0.0633 0.805369,-0.0609 1.058333,0.005 0.252965,0.0662 -0.01631,0.118 -0.598397,0.11506 -0.582083,-0.003 -0.789054,-0.0571 -0.459936,-0.1204 z m 2.510457,0.005 c 0.254661,-0.0665 0.67138,-0.0665 0.926042,0 0.254661,0.0666 0.0463,0.121 -0.463021,0.121 -0.509323,0 -0.717682,-0.0545 -0.463021,-0.121 z m 10.252601,0.0661 c 0,-0.0726 0.62508,-0.53703 1.38907,-1.032 1.95986,-1.26975 2.86361,-2.2925 2.67227,-3.02417 -0.0849,-0.32453 -0.3329,-0.59006 -0.55118,-0.59006 -0.26427,0 -0.35144,-0.17373 -0.2609,-0.51997 0.0967,-0.36976 -0.0281,-0.56987 -0.43216,-0.69275 -0.31248,-0.095 -0.74988,-0.33167 -0.97201,-0.52585 -0.34794,-0.30417 -0.62275,-0.1139 -1.98438,1.37389 -0.86927,0.94982 -1.93608,1.98437 -2.37067,2.299 -0.4346,0.31464 -0.0607,-0.15737 0.83078,-1.04889 2.6228,-2.6228 4.61194,-6.40759 6.43816,-12.25008 l 0.86449,-2.76568 0.60842,0.70732 c 0.40052,0.46564 0.65667,0.597 0.74964,0.38444 0.0777,-0.17759 0.0763,-0.007 -0.003,0.37977 -0.10827,0.52754 -0.0232,0.74197 0.34123,0.86044 0.51872,0.1686 2.7344,3.83145 2.7344,4.52038 0,0.57471 -1.72395,3.94058 -2.92476,5.71034 -1.16877,1.72255 -4.4881,4.87541 -6.04594,5.74272 -0.59591,0.33177 -1.08347,0.54379 -1.08347,0.47115 z M 93.06117,141.18123 c 0.190997,-0.0764 0.4192,-0.067 0.507119,0.0209 0.08792,0.0879 -0.06835,0.15046 -0.347266,0.13897 -0.308225,-0.0127 -0.370919,-0.0754 -0.159853,-0.15985 z m 5.010547,0.006 c 0.181901,-0.0734 0.479558,-0.0734 0.661459,0 0.181901,0.0734 0.03307,0.13345 -0.33073,0.13345 -0.363802,0 -0.51263,-0.06 -0.330729,-0.13345 z m 1.604037,-0.2701 c 0.190996,-0.0764 0.419196,-0.067 0.507116,0.0209 0.0879,0.0879 -0.0683,0.15045 -0.347264,0.13896 -0.308224,-0.0127 -0.370919,-0.0754 -0.159852,-0.15985 z m 1.058336,-0.26458 c 0.19099,-0.0764 0.4192,-0.067 0.50712,0.0209 0.0879,0.0879 -0.0684,0.15045 -0.34727,0.13896 -0.30822,-0.0127 -0.37092,-0.0754 -0.15985,-0.15985 z m 2.15872,-0.89131 c 1.65293,-0.91102 2.65339,-1.77121 2.65339,-2.28136 0,-0.42737 0.004,-0.42688 -3.43959,-0.45797 -2.440463,-0.022 -2.880368,-0.098 -3.619364,-0.62513 -1.220546,-0.87059 -1.896394,-2.13102 -2.099935,-3.91628 -0.09839,-0.863 -0.202976,-1.74768 -0.232409,-1.96596 -0.02943,-0.21828 0.09589,-1.04126 0.278501,-1.82883 0.334874,-1.44429 0.333006,-1.57745 -0.03559,-2.5368 -0.111823,-0.29104 -0.235934,-0.80694 -0.275803,-1.14644 -0.08215,-0.69958 -0.593611,-1.4208 -0.881425,-1.24293 -0.335712,0.20749 -1.336056,-0.66487 -1.336056,-1.16511 0,-0.26497 -0.177283,-0.6289 -0.393962,-0.80872 -0.216679,-0.17983 -0.335355,-0.42179 -0.263725,-0.53769 0.235906,-0.3817 -0.162503,-0.99743 -0.743746,-1.14943 -0.95889,-0.25075 -1.704985,0.52004 -2.976668,3.0752 -0.669535,1.34528 -1.135236,2.1483 -1.034892,1.7845 0.100344,-0.3638 0.671613,-1.60995 1.269486,-2.76923 2.164086,-4.19615 6.160972,-8.39162 10.334318,-10.84776 2.90187,-1.70784 3.93299,-2.11072 6.08378,-2.37703 l 1.55897,-0.19304 -0.17958,1.12298 c -0.22267,1.39252 -0.33044,1.57033 -0.95177,1.57033 -0.28551,0 -0.57039,0.25244 -0.67182,0.59531 -0.0969,0.32742 -0.52834,0.9525 -0.95885,1.38906 -3.17832,3.22298 -6.52858,8.86722 -7.653333,12.89371 -0.433063,1.55032 -0.61529,2.91973 -0.625573,4.70109 -0.01798,3.11474 0.581364,4.42738 2.430181,5.32237 2.734865,1.32393 6.226385,0.0625 10.142605,-3.66425 1.67568,-1.59463 2.46825,-2.18654 2.66472,-1.99007 0.55213,0.55214 -0.1004,1.97354 -1.80133,3.92382 -1.86338,2.13655 -4.11688,3.8767 -6.64412,5.13059 -2.08314,1.03356 -2.47474,1.03032 -0.59641,-0.005 z m -15.782761,-7.39462 c 0,-0.94588 0.04802,-1.33284 0.106713,-0.85989 0.05869,0.47294 0.05869,1.24685 0,1.71979 -0.05869,0.47294 -0.106713,0.086 -0.106713,-0.8599 z m 0.221674,-2.91041 c 0,-0.36381 0.06005,-0.51263 0.133452,-0.33073 0.0734,0.1819 0.0734,0.47955 0,0.66146 -0.0734,0.1819 -0.133452,0.0331 -0.133452,-0.33073 z m 0.243695,-1.47726 c 0.0127,-0.30823 0.07539,-0.37092 0.159852,-0.15985 0.07643,0.19099 0.06703,0.4192 -0.02089,0.50711 -0.08792,0.0879 -0.150453,-0.0683 -0.138964,-0.34726 z m 0.280888,-0.90399 c 0,-0.21829 0.102326,-0.635 0.22739,-0.92605 0.143329,-0.33354 0.227391,-0.38245 0.227391,-0.13229 0,0.21828 -0.102326,0.635 -0.227391,0.92604 -0.143328,0.33355 -0.22739,0.38245 -0.22739,0.1323 z M 110.74967,108.9069 c -0.097,-0.097 -0.17639,-0.39467 -0.17639,-0.66146 0,-0.3634 0.20063,-0.48507 0.79985,-0.48507 0.79236,0 0.79579,0.006 0.36644,0.66146 -0.44452,0.67843 -0.68077,0.7942 -0.9899,0.48507 z"
         id="path18" /><path
         style="fill:#1da5f4"
         d="m 92.421117,159.20563 c -3.583766,-0.8892 -6.191349,-3.37601 -6.18776,-5.90117 0.0011,-0.7469 0.193079,-1.51706 0.490819,-1.96862 l 0.489077,-0.74175 0.354429,1.27091 c 0.492854,1.76729 2.513844,3.76447 4.625256,4.57076 3.254825,1.24293 7.145956,0.98316 10.707422,-0.71482 1.55145,-0.73968 2.45464,-1.42657 4.13989,-3.14847 1.74993,-1.78799 2.21248,-2.13375 2.45825,-1.83761 0.1665,0.20062 0.58449,0.43549 0.92886,0.52192 0.46809,0.11748 0.59112,0.29098 0.48745,0.68742 -0.0932,0.35659 -0.009,0.53027 0.25821,0.53027 0.76243,0 0.75474,1.12768 -0.0133,1.94548 -1.37121,1.46008 -4.60343,3.33644 -7.1985,4.17885 -2.21827,0.7201 -2.95455,0.82808 -6.220262,0.91225 -2.696706,0.0695 -4.143606,-0.0136 -5.319871,-0.30542 z m 0.183139,-18.13087 c -2.352963,-0.46178 -4.001991,-2.12898 -4.93885,-4.99326 -0.590675,-1.80588 -0.389571,-6.47325 0.393788,-9.13933 0.717977,-2.44355 2.548926,-6.12595 3.286082,-6.60896 0.92724,-0.60755 2.403454,0.10225 1.901567,0.91432 -0.07163,0.1159 0.04705,0.35786 0.263725,0.53769 0.216679,0.17982 0.393962,0.54375 0.393962,0.80872 0,0.50024 1.000344,1.3726 1.336056,1.16511 0.287814,-0.17787 0.799273,0.54335 0.881425,1.24293 0.03987,0.3395 0.152558,0.82564 0.250421,1.0803 0.377606,0.98262 0.383024,1.21395 0.06097,2.60294 -0.182608,0.78757 -0.307934,1.61055 -0.278501,1.82883 0.02943,0.21828 0.134017,1.10296 0.232409,1.96596 0.203541,1.78526 0.879389,3.04569 2.099935,3.91628 0.738996,0.52712 1.178901,0.6031 3.619365,0.62513 3.45997,0.0312 3.43959,0.0284 3.43959,0.48057 0,0.49311 -1.36113,1.61968 -2.89763,2.39829 -2.4394,1.23614 -7.00811,1.77036 -10.044315,1.17448 z"
         id="path17" /></g></g></svg>
