<svg viewBox="0 0 1200 900" xmlns="http://www.w3.org/2000/svg" role="img" aria-label="GLINT — Native Git, designed inside the IDE">
  <defs>
    <linearGradient id="bg" x1="0" y1="0" x2="1" y2="1">
      <stop offset="0%" stop-color="#070a10"/>
      <stop offset="55%" stop-color="#0a0e16"/>
      <stop offset="100%" stop-color="#120819"/>
    </linearGradient>
    <linearGradient id="glint" x1="0" y1="0" x2="1" y2="0">
      <stop offset="0%" stop-color="#3b82f6"/>
      <stop offset="100%" stop-color="#a855f7"/>
    </linearGradient>
    <linearGradient id="panel" x1="0" y1="0" x2="0" y2="1">
      <stop offset="0%" stop-color="#10141c"/>
      <stop offset="100%" stop-color="#0a0d14"/>
    </linearGradient>
    <linearGradient id="panelStroke" x1="0" y1="0" x2="0" y2="1">
      <stop offset="0%" stop-color="rgba(255,255,255,0.14)"/>
      <stop offset="100%" stop-color="rgba(255,255,255,0.04)"/>
    </linearGradient>
    <linearGradient id="head" x1="0" y1="0" x2="1" y2="1">
      <stop offset="0%" stop-color="#60a5fa"/>
      <stop offset="100%" stop-color="#c084fc"/>
    </linearGradient>
    <radialGradient id="glowBlue" cx="0.5" cy="0.5" r="0.5">
      <stop offset="0%" stop-color="rgba(59,130,246,0.55)"/>
      <stop offset="60%" stop-color="rgba(59,130,246,0.08)"/>
      <stop offset="100%" stop-color="rgba(59,130,246,0)"/>
    </radialGradient>
    <radialGradient id="glowPurple" cx="0.5" cy="0.5" r="0.5">
      <stop offset="0%" stop-color="rgba(168,85,247,0.5)"/>
      <stop offset="60%" stop-color="rgba(168,85,247,0.08)"/>
      <stop offset="100%" stop-color="rgba(168,85,247,0)"/>
    </radialGradient>
    <radialGradient id="glowRed" cx="0.5" cy="0.5" r="0.5">
      <stop offset="0%" stop-color="rgba(239,68,68,0.32)"/>
      <stop offset="100%" stop-color="rgba(239,68,68,0)"/>
    </radialGradient>
    <filter id="soft" x="-30%" y="-30%" width="160%" height="160%">
      <feGaussianBlur stdDeviation="3"/>
    </filter>
    <filter id="softer" x="-50%" y="-50%" width="200%" height="200%">
      <feGaussianBlur stdDeviation="10"/>
    </filter>
  </defs>

  <rect width="1200" height="900" fill="url(#bg)"/>
  <circle cx="980" cy="160" r="360" fill="url(#glowBlue)"/>
  <circle cx="180" cy="780" r="320" fill="url(#glowPurple)"/>
  <circle cx="600" cy="900" r="220" fill="url(#glowRed)"/>

  <g transform="translate(0,0)" opacity="0.18">
    <path d="M0 250 Q 300 230 600 250 T 1200 250" stroke="rgba(255,255,255,0.4)" stroke-width="0.5" fill="none"/>
    <path d="M0 600 Q 300 580 600 600 T 1200 600" stroke="rgba(255,255,255,0.3)" stroke-width="0.5" fill="none"/>
  </g>

  <g transform="translate(70 90)">
    <rect x="6" y="14" width="1060" height="720" rx="22" fill="#000" opacity="0.55" filter="url(#softer)"/>

    <rect width="1060" height="720" rx="22" fill="url(#panel)"/>
    <rect width="1060" height="720" rx="22" fill="none" stroke="url(#panelStroke)" stroke-width="1"/>

    <g>
      <rect width="1060" height="48" rx="22" fill="#08090f"/>
      <rect y="24" width="1060" height="24" fill="#08090f"/>
      <circle cx="26" cy="24" r="6" fill="#ff5f57"/>
      <circle cx="48" cy="24" r="6" fill="#febc2e"/>
      <circle cx="70" cy="24" r="6" fill="#28c840"/>
      <g transform="translate(498 16)">
        <rect x="-10" y="-2" width="180" height="20" rx="4" fill="rgba(255,255,255,0.04)"/>
        <text x="80" y="13" text-anchor="middle" fill="rgba(255,255,255,0.55)" font-family="Inter, system-ui, sans-serif" font-size="11" font-weight="500" letter-spacing="0.4">glint.dev — feature/git-panel</text>
      </g>
      <g transform="translate(990 18)">
        <rect width="14" height="14" rx="3" fill="rgba(255,255,255,0.08)"/>
        <rect x="22" width="14" height="14" rx="3" fill="rgba(255,255,255,0.08)"/>
      </g>
    </g>

    <g transform="translate(0 48)">
      <rect width="240" height="672" fill="#080a10"/>
      <rect x="240" y="0" width="1" height="672" fill="rgba(255,255,255,0.05)"/>

      <g transform="translate(20 28)">
        <circle cx="8" cy="8" r="8" fill="url(#glint)"/>
        <text x="28" y="13" fill="#fff" font-family="Inter, system-ui, sans-serif" font-size="14" font-weight="700" letter-spacing="0.5">GLINT</text>
      </g>

      <g transform="translate(20 70)">
        <text fill="rgba(255,255,255,0.35)" font-family="Inter, system-ui, sans-serif" font-size="10" font-weight="600" letter-spacing="1.4">BRANCHES</text>
      </g>
      <g font-family="Inter, system-ui, sans-serif" font-size="13">
        <g transform="translate(8 90)">
          <rect width="220" height="34" rx="8" fill="rgba(255,255,255,0.02)"/>
          <path d="M14 17 v-3 a4 4 0 0 1 4 -4 h2" stroke="rgba(255,255,255,0.4)" stroke-width="1.4" fill="none" stroke-linecap="round"/>
          <circle cx="22" cy="22" r="3" fill="rgba(255,255,255,0.5)"/>
          <text x="40" y="22" fill="rgba(255,255,255,0.8)">main</text>
          <text x="208" y="22" text-anchor="end" fill="rgba(255,255,255,0.35)" font-family="JetBrains Mono, monospace" font-size="11">a3f9c2</text>
        </g>

        <g transform="translate(8 132)">
          <rect width="220" height="34" rx="8" fill="rgba(59,130,246,0.10)"/>
          <rect width="220" height="34" rx="8" fill="none" stroke="rgba(96,165,250,0.45)" stroke-width="1"/>
          <rect x="-1" width="3" height="34" fill="url(#glint)"/>
          <circle cx="22" cy="17" r="3" fill="#60a5fa"/>
          <text x="40" y="22" fill="#fff" font-weight="600">feature/git-panel</text>
          <text x="208" y="22" text-anchor="end" fill="#60a5fa" font-family="JetBrains Mono, monospace" font-size="11" font-weight="600">+12</text>
        </g>

        <g transform="translate(8 174)" fill="rgba(255,255,255,0.65)">
          <rect width="220" height="30" rx="8" fill="transparent"/>
          <circle cx="22" cy="15" r="3" fill="rgba(255,255,255,0.35)"/>
          <text x="40" y="20">refactor/types</text>
          <text x="208" y="20" text-anchor="end" fill="rgba(255,255,255,0.3)" font-family="JetBrains Mono, monospace" font-size="11">+4</text>
        </g>
        <g transform="translate(8 208)" fill="rgba(255,255,255,0.65)">
          <circle cx="22" cy="15" r="3" fill="rgba(255,255,255,0.35)"/>
          <text x="40" y="20">fix/diff-render</text>
          <text x="208" y="20" text-anchor="end" fill="rgba(255,255,255,0.3)" font-family="JetBrains Mono, monospace" font-size="11">+1</text>
        </g>
        <g transform="translate(8 242)" fill="rgba(255,255,255,0.65)">
          <circle cx="22" cy="15" r="3" fill="rgba(255,255,255,0.35)"/>
          <text x="40" y="20">chore/release-0.4</text>
        </g>
      </g>

      <g transform="translate(20 308)">
        <text fill="rgba(255,255,255,0.35)" font-family="Inter, system-ui, sans-serif" font-size="10" font-weight="600" letter-spacing="1.4">LINKED ISSUE</text>
      </g>
      <g transform="translate(8 326)">
        <rect width="220" height="86" rx="10" fill="rgba(255,255,255,0.025)"/>
        <rect width="220" height="86" rx="10" fill="none" stroke="rgba(255,255,255,0.06)" stroke-width="1"/>
        <g transform="translate(14 18)">
          <rect width="44" height="18" rx="9" fill="rgba(34,197,94,0.15)"/>
          <text x="22" y="13" text-anchor="middle" fill="#4ade80" font-family="Inter, system-ui, sans-serif" font-size="10" font-weight="600">OPEN</text>
          <text x="56" y="13" fill="rgba(255,255,255,0.45)" font-family="JetBrains Mono, monospace" font-size="11">#247</text>
        </g>
        <text x="14" y="56" fill="#fff" font-family="Inter, system-ui, sans-serif" font-size="13" font-weight="600">Stage by hunk in GitPanel</text>
        <text x="14" y="74" fill="rgba(255,255,255,0.5)" font-family="Inter, system-ui, sans-serif" font-size="11">In progress · 4 files staged</text>
      </g>

      <g transform="translate(20 444)">
        <text fill="rgba(255,255,255,0.35)" font-family="Inter, system-ui, sans-serif" font-size="10" font-weight="600" letter-spacing="1.4">CHANGES</text>
      </g>
      <g transform="translate(20 466)" font-family="JetBrains Mono, monospace" font-size="11">
        <g transform="translate(0 0)">
          <rect x="-12" y="-12" width="220" height="24" rx="6" fill="rgba(34,197,94,0.06)"/>
          <text fill="#4ade80">M</text>
          <text x="20" fill="rgba(255,255,255,0.85)">app/git/GitPanel.tsx</text>
        </g>
        <g transform="translate(0 32)">
          <text fill="#4ade80">M</text>
          <text x="20" fill="rgba(255,255,255,0.7)">app/git/HunkRow.tsx</text>
        </g>
        <g transform="translate(0 56)">
          <text fill="#60a5fa">A</text>
          <text x="20" fill="rgba(255,255,255,0.7)">app/git/parseHunk.ts</text>
        </g>
        <g transform="translate(0 80)">
          <text fill="#fbbf24">M</text>
          <text x="20" fill="rgba(255,255,255,0.7)">app/git/types.ts</text>
        </g>
      </g>
    </g>

    <g transform="translate(241 48)">
      <rect width="819" height="40" fill="#0a0c12"/>
      <rect width="220" height="40" fill="#10141c"/>
      <rect width="220" height="2" fill="url(#glint)"/>
      <text x="20" y="25" fill="#fff" font-family="JetBrains Mono, monospace" font-size="12" font-weight="500">GitPanel.tsx</text>
      <circle cx="196" cy="20" r="3.5" fill="#60a5fa"/>
      <text x="240" y="25" fill="rgba(255,255,255,0.45)" font-family="JetBrains Mono, monospace" font-size="12">parseHunk.ts</text>
      <text x="360" y="25" fill="rgba(255,255,255,0.45)" font-family="JetBrains Mono, monospace" font-size="12">HunkRow.tsx</text>

      <g transform="translate(720 12)">
        <rect width="84" height="22" rx="11" fill="rgba(34,197,94,0.12)" stroke="rgba(34,197,94,0.35)" stroke-width="1"/>
        <circle cx="14" cy="11" r="3" fill="#22c55e"/>
        <text x="26" y="15" fill="#86efac" font-family="Inter, system-ui, sans-serif" font-size="10" font-weight="600" letter-spacing="0.5">CLEAN</text>
      </g>
    </g>

    <g transform="translate(260 110)">
      <text fill="rgba(255,255,255,0.4)" font-family="Inter, system-ui, sans-serif" font-size="10" font-weight="600" letter-spacing="1.4">BRANCH HISTORY</text>
    </g>

    <g transform="translate(280 138)" font-family="Inter, system-ui, sans-serif">
      <line x1="20" y1="14" x2="20" y2="296" stroke="rgba(168,85,247,0.7)" stroke-width="2"/>
      <line x1="60" y1="64" x2="60" y2="246" stroke="rgba(96,165,250,0.85)" stroke-width="2"/>
      <path d="M20 64 C 20 64 35 64 60 84" stroke="rgba(96,165,250,0.85)" stroke-width="2" fill="none"/>
      <path d="M60 246 C 60 246 35 246 20 266" stroke="rgba(96,165,250,0.85)" stroke-width="2" fill="none"/>

      <g>
        <circle cx="20" cy="14" r="14" fill="rgba(168,85,247,0.18)" filter="url(#soft)"/>
        <circle cx="20" cy="14" r="6" fill="#a855f7"/>
        <text x="86" y="11" fill="#fff" font-size="13" font-weight="600">Initial release scaffold</text>
        <text x="86" y="28" fill="rgba(255,255,255,0.45)" font-family="JetBrains Mono, monospace" font-size="11">a3f9c2 · main · 2d ago</text>
      </g>

      <g>
        <circle cx="60" cy="84" r="14" fill="rgba(96,165,250,0.2)" filter="url(#soft)"/>
        <circle cx="60" cy="84" r="6" fill="#60a5fa"/>
        <text x="86" y="81" fill="rgba(255,255,255,0.92)" font-size="13" font-weight="600">Add hunk parser</text>
        <text x="86" y="98" fill="rgba(255,255,255,0.45)" font-family="JetBrains Mono, monospace" font-size="11">8d12fe · feature/git-panel</text>
      </g>

      <g>
        <circle cx="60" cy="138" r="14" fill="rgba(96,165,250,0.2)" filter="url(#soft)"/>
        <circle cx="60" cy="138" r="6" fill="#60a5fa"/>
        <text x="86" y="135" fill="rgba(255,255,255,0.92)" font-size="13" font-weight="600">Render diff lines as hunks</text>
        <text x="86" y="152" fill="rgba(255,255,255,0.45)" font-family="JetBrains Mono, monospace" font-size="11">b7e441 · feature/git-panel</text>
      </g>

      <g>
        <circle cx="60" cy="192" r="22" fill="rgba(96,165,250,0.18)" filter="url(#soft)"/>
        <circle cx="60" cy="192" r="9" fill="url(#head)" stroke="#fff" stroke-width="2"/>
        <text x="86" y="189" fill="#fff" font-size="13" font-weight="700">Stage by hunk · HEAD</text>
        <text x="86" y="206" fill="#60a5fa" font-family="JetBrains Mono, monospace" font-size="11" font-weight="600">c2a91b · uncommitted · 4 files</text>
      </g>

      <g>
        <circle cx="20" cy="266" r="14" fill="rgba(168,85,247,0.18)" filter="url(#soft)"/>
        <circle cx="20" cy="266" r="6" fill="#a855f7"/>
        <text x="86" y="263" fill="rgba(255,255,255,0.92)" font-size="13" font-weight="600">Merge feature/types</text>
        <text x="86" y="280" fill="rgba(255,255,255,0.45)" font-family="JetBrains Mono, monospace" font-size="11">d4e887 · main</text>
      </g>
    </g>

    <g transform="translate(260 460)">
      <rect width="780" height="246" rx="14" fill="rgba(255,255,255,0.025)"/>
      <rect width="780" height="246" rx="14" fill="none" stroke="rgba(255,255,255,0.07)" stroke-width="1"/>

      <g transform="translate(18 26)">
        <text fill="rgba(255,255,255,0.45)" font-family="Inter, system-ui, sans-serif" font-size="10" font-weight="600" letter-spacing="1.4">DIFF · GITPANEL.TSX</text>
        <g transform="translate(660 -10)">
          <rect width="100" height="22" rx="6" fill="url(#glint)"/>
          <text x="50" y="15" text-anchor="middle" fill="#fff" font-family="Inter, system-ui, sans-serif" font-size="11" font-weight="600" letter-spacing="0.4">STAGE HUNK</text>
        </g>
      </g>

      <g transform="translate(0 50)" font-family="JetBrains Mono, monospace" font-size="13">
        <rect y="0" width="780" height="26" fill="rgba(239,68,68,0.10)"/>
        <text x="14" y="18" fill="rgba(239,68,68,0.7)">−</text>
        <text x="34" y="18" fill="rgba(255,255,255,0.35)">42</text>
        <text x="68" y="18" fill="#fca5a5">const renderDiff = (lines: string[]) =&gt; {</text>

        <rect y="32" width="780" height="26" fill="rgba(34,197,94,0.10)"/>
        <text x="14" y="50" fill="rgba(34,197,94,0.8)">+</text>
        <text x="34" y="50" fill="rgba(255,255,255,0.35)">42</text>
        <text x="68" y="50" fill="#86efac">const renderDiff = (hunks: Hunk[]) =&gt; (</text>

        <text x="34" y="82" fill="rgba(255,255,255,0.3)">43</text>
        <text x="68" y="82" fill="rgba(255,255,255,0.78)">  hunks.map((hunk) =&gt; (</text>

        <text x="34" y="106" fill="rgba(255,255,255,0.3)">44</text>
        <text x="68" y="106" fill="rgba(255,255,255,0.78)">    &lt;<tspan fill="#c084fc">HunkRow</tspan></text>

        <text x="34" y="130" fill="rgba(255,255,255,0.3)">45</text>
        <text x="68" y="130" fill="rgba(255,255,255,0.78)">      <tspan fill="#fbbf24">key</tspan>={hunk.id}</text>

        <rect y="142" width="780" height="26" fill="rgba(34,197,94,0.10)"/>
        <text x="14" y="160" fill="rgba(34,197,94,0.8)">+</text>
        <text x="34" y="160" fill="rgba(255,255,255,0.3)">46</text>
        <text x="68" y="160" fill="#86efac">      onStage={() =&gt; stageHunk(hunk.id)}</text>

        <text x="34" y="186" fill="rgba(255,255,255,0.3)">47</text>
        <text x="68" y="186" fill="rgba(255,255,255,0.78)">    /&gt;</text>
      </g>
    </g>
  </g>

  <g transform="translate(70 836)" font-family="Inter, system-ui, sans-serif">
    <text fill="rgba(255,255,255,0.5)" font-size="11" letter-spacing="2">DESIGNED &amp; SHIPPED · GLINT.DEV</text>
  </g>
  <g transform="translate(1130 836)" text-anchor="end" font-family="JetBrains Mono, monospace">
    <text fill="rgba(255,255,255,0.35)" font-size="11">v0.3.22-alpha · macOS · aarch64</text>
  </g>
</svg>
