<svg width="1200" height="900" viewBox="0 0 1200 900" preserveAspectRatio="xMidYMid slice" xmlns="http://www.w3.org/2000/svg" role="img" aria-label="GLINT — Issue-driven AI development environment">
  <defs>
    <linearGradient id="bg" x1="0" y1="0" x2="1" y2="1">
      <stop offset="0%" stop-color="#050810"/>
      <stop offset="50%" stop-color="#0a0c1a"/>
      <stop offset="100%" stop-color="#170926"/>
    </linearGradient>
    <linearGradient id="glintGrad" x1="0" y1="0" x2="1" y2="0">
      <stop offset="0%" stop-color="#3b82f6"/>
      <stop offset="100%" stop-color="#a855f7"/>
    </linearGradient>
    <linearGradient id="glintGrad2" x1="0" y1="0" x2="1" y2="1">
      <stop offset="0%" stop-color="#60a5fa"/>
      <stop offset="60%" stop-color="#a855f7"/>
      <stop offset="100%" stop-color="#ec4899"/>
    </linearGradient>
    <linearGradient id="panel" x1="0" y1="0" x2="0" y2="1">
      <stop offset="0%" stop-color="rgba(20,24,36,0.92)"/>
      <stop offset="100%" stop-color="rgba(10,12,20,0.92)"/>
    </linearGradient>
    <linearGradient id="panelStroke" x1="0" y1="0" x2="1" y2="1">
      <stop offset="0%" stop-color="rgba(255,255,255,0.18)"/>
      <stop offset="100%" stop-color="rgba(255,255,255,0.04)"/>
    </linearGradient>
    <linearGradient id="assistPanel" x1="0" y1="0" x2="0" y2="1">
      <stop offset="0%" stop-color="rgba(168,85,247,0.18)"/>
      <stop offset="100%" stop-color="rgba(20,24,36,0.92)"/>
    </linearGradient>
    <linearGradient id="avatarGrad" x1="0" y1="0" x2="1" y2="1">
      <stop offset="0%" stop-color="#f472b6"/>
      <stop offset="100%" stop-color="#a855f7"/>
    </linearGradient>
    <linearGradient id="ctaGrad" x1="0" y1="0" x2="1" y2="0">
      <stop offset="0%" stop-color="#3b82f6"/>
      <stop offset="100%" stop-color="#a855f7"/>
    </linearGradient>
    <radialGradient id="blobBlue" cx="0.5" cy="0.5" r="0.5">
      <stop offset="0%" stop-color="rgba(59,130,246,0.55)"/>
      <stop offset="60%" stop-color="rgba(59,130,246,0.06)"/>
      <stop offset="100%" stop-color="rgba(59,130,246,0)"/>
    </radialGradient>
    <radialGradient id="blobPurple" cx="0.5" cy="0.5" r="0.5">
      <stop offset="0%" stop-color="rgba(168,85,247,0.6)"/>
      <stop offset="60%" stop-color="rgba(168,85,247,0.06)"/>
      <stop offset="100%" stop-color="rgba(168,85,247,0)"/>
    </radialGradient>
    <radialGradient id="blobPink" cx="0.5" cy="0.5" r="0.5">
      <stop offset="0%" stop-color="rgba(236,72,153,0.4)"/>
      <stop offset="100%" stop-color="rgba(236,72,153,0)"/>
    </radialGradient>
    <pattern id="dot" width="32" height="32" patternUnits="userSpaceOnUse">
      <circle cx="1" cy="1" r="0.9" fill="rgba(255,255,255,0.06)"/>
    </pattern>
    <filter id="shadow" x="-30%" y="-30%" width="160%" height="160%">
      <feGaussianBlur in="SourceAlpha" stdDeviation="14"/>
      <feOffset dy="14"/>
      <feComponentTransfer><feFuncA type="linear" slope="0.65"/></feComponentTransfer>
      <feMerge><feMergeNode/><feMergeNode in="SourceGraphic"/></feMerge>
    </filter>
    <filter id="glow" x="-50%" y="-50%" width="200%" height="200%">
      <feGaussianBlur stdDeviation="10"/>
    </filter>
  </defs>

  <rect width="1200" height="900" fill="url(#bg)"/>
  <ellipse cx="180" cy="160" rx="540" ry="380" fill="url(#blobBlue)"/>
  <ellipse cx="1040" cy="760" rx="500" ry="380" fill="url(#blobPurple)"/>
  <ellipse cx="600" cy="940" rx="600" ry="180" fill="url(#blobPink)"/>
  <rect width="1200" height="900" fill="url(#dot)"/>

  <g opacity="0.18" stroke="rgba(255,255,255,0.5)" stroke-width="0.6" fill="none">
    <path d="M0 200 Q 300 180 600 200 T 1200 200"/>
    <path d="M0 720 Q 300 700 600 720 T 1200 720"/>
  </g>

  <text x="600" y="640" text-anchor="middle" font-family="Inter, system-ui, sans-serif" font-size="380" font-weight="900" fill="url(#glintGrad2)" opacity="0.10" letter-spacing="-22">GLINT</text>

  <g transform="translate(86 96)">
    <g transform="translate(8 14)" filter="url(#shadow)">
      <rect width="404" height="220" rx="22" fill="url(#panel)"/>
    </g>
    <g transform="rotate(-2.5 210 110)">
      <rect width="420" height="232" rx="22" fill="url(#panel)"/>
      <rect width="420" height="232" rx="22" fill="none" stroke="url(#panelStroke)" stroke-width="1"/>

      <g transform="translate(24 24)">
        <rect width="22" height="22" rx="11" fill="rgba(34,197,94,0.16)"/>
        <circle cx="11" cy="11" r="4" fill="none" stroke="#4ade80" stroke-width="1.6"/>
        <text x="36" y="16" fill="#4ade80" font-family="Inter, system-ui, sans-serif" font-size="11" font-weight="700" letter-spacing="1">OPEN</text>
        <text x="80" y="16" fill="rgba(255,255,255,0.4)" font-family="JetBrains Mono, monospace" font-size="12">codedink/website#247</text>
        <g transform="translate(360 0)">
          <circle r="4" cx="6" cy="11" fill="#22c55e"/>
        </g>
      </g>

      <text x="24" y="92" fill="#fff" font-family="Inter, system-ui, sans-serif" font-size="22" font-weight="700">Stage by hunk in GitPanel</text>

      <text x="24" y="124" fill="rgba(255,255,255,0.6)" font-family="Inter, system-ui, sans-serif" font-size="13">Let devs stage individual hunks inline instead of the whole file —</text>
      <text x="24" y="142" fill="rgba(255,255,255,0.6)" font-family="Inter, system-ui, sans-serif" font-size="13">it&apos;s the muscle memory people bring from the terminal.</text>

      <g transform="translate(24 168)">
        <rect width="80" height="22" rx="11" fill="rgba(96,165,250,0.16)"/>
        <text x="40" y="15" text-anchor="middle" fill="#93c5fd" font-family="Inter, system-ui, sans-serif" font-size="11" font-weight="700">design</text>
      </g>
      <g transform="translate(112 168)">
        <rect width="100" height="22" rx="11" fill="rgba(168,85,247,0.18)"/>
        <text x="50" y="15" text-anchor="middle" fill="#c4b5fd" font-family="Inter, system-ui, sans-serif" font-size="11" font-weight="700">ide / git</text>
      </g>

      <g transform="translate(24 200)">
        <circle cx="12" cy="12" r="12" fill="url(#avatarGrad)"/>
        <text x="32" y="17" fill="rgba(255,255,255,0.7)" font-family="Inter, system-ui, sans-serif" font-size="12" font-weight="500">kasper · 2 days ago</text>
      </g>

      <text x="320" y="216" fill="rgba(96,165,250,0.85)" font-family="JetBrains Mono, monospace" font-size="11" font-weight="600">PINNED →</text>
    </g>
  </g>

  <g stroke-dasharray="3 4" stroke-width="1.6" fill="none" opacity="0.55">
    <path d="M 510 296 C 540 320 580 320 600 360" stroke="url(#glintGrad)"/>
  </g>
  <circle cx="600" cy="360" r="3.5" fill="#a855f7"/>

  <g transform="translate(386 280)">
    <g transform="translate(10 16)" filter="url(#shadow)">
      <rect width="500" height="320" rx="22" fill="url(#panel)"/>
    </g>
    <g transform="rotate(0.5 250 160)">
      <rect width="500" height="320" rx="22" fill="url(#panel)"/>
      <rect width="500" height="320" rx="22" fill="none" stroke="url(#panelStroke)" stroke-width="1"/>

      <g transform="translate(0 0)">
        <rect width="500" height="42" rx="22" fill="rgba(8,9,15,0.7)"/>
        <rect y="20" width="500" height="22" fill="rgba(8,9,15,0.7)"/>
        <circle cx="22" cy="22" r="5" fill="#ff5f57"/>
        <circle cx="40" cy="22" r="5" fill="#febc2e"/>
        <circle cx="58" cy="22" r="5" fill="#28c840"/>

        <g transform="translate(80 8)">
          <rect width="120" height="26" rx="8" fill="rgba(255,255,255,0.06)"/>
          <rect width="120" height="2" fill="url(#glintGrad)"/>
          <text x="60" y="17" text-anchor="middle" fill="#fff" font-family="JetBrains Mono, monospace" font-size="11" font-weight="600">tab-types.js</text>
        </g>
        <text x="220" y="25" fill="rgba(255,255,255,0.45)" font-family="JetBrains Mono, monospace" font-size="11">utils.js</text>
        <text x="278" y="25" fill="rgba(255,255,255,0.45)" font-family="JetBrains Mono, monospace" font-size="11">styles.css</text>

        <g transform="translate(440 12)">
          <rect width="48" height="20" rx="10" fill="rgba(34,197,94,0.16)" stroke="rgba(34,197,94,0.4)" stroke-width="1"/>
          <circle cx="11" cy="10" r="3" fill="#22c55e"/>
          <text x="22" y="14" fill="#86efac" font-family="Inter, system-ui, sans-serif" font-size="9" font-weight="700" letter-spacing="0.5">SYNC</text>
        </g>
      </g>

      <g transform="translate(20 64)" font-family="JetBrains Mono, monospace" font-size="13">
        <g fill="rgba(255,255,255,0.32)" font-size="11">
          <text x="0" y="14" text-anchor="end" dx="20">142</text>
          <text x="0" y="38" text-anchor="end" dx="20">143</text>
          <text x="0" y="62" text-anchor="end" dx="20">144</text>
          <text x="0" y="86" text-anchor="end" dx="20">145</text>
          <text x="0" y="110" text-anchor="end" dx="20">146</text>
          <text x="0" y="134" text-anchor="end" dx="20">147</text>
          <text x="0" y="158" text-anchor="end" dx="20">148</text>
          <text x="0" y="182" text-anchor="end" dx="20">149</text>
          <text x="0" y="206" text-anchor="end" dx="20">150</text>
          <text x="0" y="230" text-anchor="end" dx="20">151</text>
        </g>

        <rect x="36" y="-2" width="442" height="20" fill="rgba(96,165,250,0.06)"/>
        <rect x="36" y="-2" width="3" height="20" fill="#60a5fa"/>

        <g>
          <text x="36" y="14" fill="rgba(255,255,255,0.88)"><tspan fill="#c084fc">registerTabType</tspan>({</text>
          <text x="36" y="38" fill="rgba(255,255,255,0.88)">  <tspan fill="#fbbf24">type</tspan>: <tspan fill="#86efac">&apos;issue-list&apos;</tspan>,</text>
          <text x="36" y="62" fill="rgba(255,255,255,0.88)">  <tspan fill="#fbbf24">label</tspan>: <tspan fill="#86efac">&apos;Issues&apos;</tspan>,</text>
          <text x="36" y="86" fill="rgba(255,255,255,0.88)">  <tspan fill="#fbbf24">tabIcon</tspan>: <tspan fill="#86efac">&apos;circle-dot&apos;</tspan>,</text>
          <text x="36" y="110" fill="rgba(255,255,255,0.88)">  <tspan fill="#fbbf24">defaultPlacement</tspan>: <tspan fill="#86efac">&apos;top&apos;</tspan>,</text>
          <text x="36" y="134" fill="rgba(255,255,255,0.88)">  <tspan fill="#fbbf24">singleton</tspan>: <tspan fill="#f472b6">true</tspan>,</text>

          <rect x="36" y="146" width="442" height="20" fill="rgba(168,85,247,0.10)"/>
          <rect x="36" y="146" width="3" height="20" fill="#a855f7"/>
          <text x="36" y="158" fill="rgba(255,255,255,0.88)">  <tspan fill="#60a5fa">async</tspan> <tspan fill="#c084fc">renderContent</tspan>(<tspan fill="#fbbf24">tab</tspan>) {</text>

          <rect x="36" y="170" width="442" height="20" fill="rgba(34,197,94,0.10)"/>
          <text x="36" y="182" fill="#86efac">    <tspan>+ </tspan><tspan fill="#60a5fa">const</tspan> issues = <tspan fill="#60a5fa">await</tspan> <tspan fill="#c084fc">fetchIssues</tspan>(tab.repo);</text>

          <rect x="36" y="194" width="442" height="20" fill="rgba(34,197,94,0.10)"/>
          <text x="36" y="206" fill="#86efac">    <tspan>+ </tspan><tspan fill="#60a5fa">return</tspan> <tspan fill="#c084fc">renderList</tspan>(issues);</text>

          <text x="36" y="230" fill="rgba(255,255,255,0.88)">  },</text>
        </g>
        <line x1="160" y1="166" x2="160" y2="186" stroke="#fff" stroke-width="1.5" opacity="0.85">
          <animate attributeName="opacity" values="0.85;0;0.85" dur="1.1s" repeatCount="indefinite"/>
        </line>
      </g>

      <g transform="translate(20 280)">
        <rect width="460" height="28" rx="8" fill="rgba(96,165,250,0.08)"/>
        <rect width="460" height="28" rx="8" fill="none" stroke="rgba(96,165,250,0.3)" stroke-width="1"/>
        <circle cx="20" cy="14" r="6" fill="rgba(96,165,250,0.3)"/>
        <circle cx="20" cy="14" r="3" fill="#60a5fa"/>
        <text x="38" y="18" fill="rgba(255,255,255,0.85)" font-family="Inter, system-ui, sans-serif" font-size="12">Resolves <tspan fill="#60a5fa" font-weight="600">#247 · Stage by hunk in GitPanel</tspan></text>
        <text x="430" y="18" text-anchor="end" fill="rgba(255,255,255,0.5)" font-family="JetBrains Mono, monospace" font-size="11">linked</text>
      </g>
    </g>
  </g>

  <g stroke-dasharray="3 4" stroke-width="1.6" fill="none" opacity="0.55">
    <path d="M 880 540 C 920 580 940 600 940 640" stroke="url(#glintGrad)"/>
  </g>
  <circle cx="940" cy="640" r="3.5" fill="#ec4899"/>

  <g transform="translate(640 580)">
    <g transform="translate(10 16)" filter="url(#shadow)">
      <rect width="460" height="280" rx="22" fill="url(#panel)"/>
    </g>
    <g transform="rotate(2 230 140)">
      <rect width="460" height="280" rx="22" fill="url(#assistPanel)"/>
      <rect width="460" height="280" rx="22" fill="none" stroke="url(#panelStroke)" stroke-width="1"/>

      <g transform="translate(24 24)">
        <circle cx="12" cy="12" r="12" fill="url(#glintGrad2)"/>
        <text x="34" y="17" fill="#fff" font-family="Inter, system-ui, sans-serif" font-size="15" font-weight="800" letter-spacing="0.5">Glint Assist</text>
        <g transform="translate(360 4)">
          <rect width="60" height="20" rx="10" fill="rgba(34,197,94,0.16)"/>
          <circle cx="13" cy="10" r="3.5" fill="#22c55e"/>
          <text x="22" y="14" fill="#86efac" font-family="Inter, system-ui, sans-serif" font-size="10" font-weight="700" letter-spacing="0.5">LIVE</text>
        </g>
      </g>

      <g transform="translate(24 64)" font-family="Inter, system-ui, sans-serif" font-size="13">
        <text fill="rgba(255,255,255,0.92)" font-weight="500">I read <tspan fill="#c084fc" font-family="JetBrains Mono, monospace" font-size="12">#247</tspan> and the diff. Wiring</text>
        <text y="20" fill="rgba(255,255,255,0.92)" font-weight="500"><tspan fill="#c084fc" font-family="JetBrains Mono, monospace" font-size="12">renderContent</tspan> through <tspan fill="#c084fc" font-family="JetBrains Mono, monospace" font-size="12">fetchIssues</tspan> now —</text>
        <text y="40" fill="rgba(255,255,255,0.92)" font-weight="500">3 changes ready to review.</text>
      </g>

      <g transform="translate(24 124)" font-family="Inter, system-ui, sans-serif">
        <g>
          <rect width="412" height="34" rx="9" fill="rgba(255,255,255,0.04)"/>
          <circle cx="20" cy="17" r="8" fill="rgba(96,165,250,0.2)" stroke="#60a5fa" stroke-width="1.4"/>
          <text x="20" y="21" text-anchor="middle" fill="#60a5fa" font-size="11" font-weight="700">1</text>
          <text x="40" y="14" fill="#fff" font-size="12" font-weight="600">Add fetchIssues helper</text>
          <text x="40" y="28" fill="rgba(255,255,255,0.5)" font-family="JetBrains Mono, monospace" font-size="10">utils.js · +14</text>
          <g transform="translate(380 12)"><circle cx="6" cy="6" r="6" fill="rgba(34,197,94,0.16)"/><path d="M3 6 l2 2 l4 -4" stroke="#4ade80" stroke-width="1.5" fill="none" stroke-linecap="round" stroke-linejoin="round"/></g>
        </g>
        <g transform="translate(0 42)">
          <rect width="412" height="34" rx="9" fill="rgba(255,255,255,0.04)"/>
          <circle cx="20" cy="17" r="8" fill="rgba(168,85,247,0.22)" stroke="#a855f7" stroke-width="1.4"/>
          <text x="20" y="21" text-anchor="middle" fill="#c4b5fd" font-size="11" font-weight="700">2</text>
          <text x="40" y="14" fill="#fff" font-size="12" font-weight="600">Make renderContent async</text>
          <text x="40" y="28" fill="rgba(255,255,255,0.5)" font-family="JetBrains Mono, monospace" font-size="10">tab-types.js · +6 −2</text>
          <g transform="translate(380 12)"><circle cx="6" cy="6" r="6" fill="rgba(34,197,94,0.16)"/><path d="M3 6 l2 2 l4 -4" stroke="#4ade80" stroke-width="1.5" fill="none" stroke-linecap="round" stroke-linejoin="round"/></g>
        </g>
        <g transform="translate(0 84)">
          <rect width="412" height="34" rx="9" fill="rgba(255,255,255,0.04)"/>
          <circle cx="20" cy="17" r="8" fill="rgba(244,114,182,0.22)" stroke="#f472b6" stroke-width="1.4"/>
          <text x="20" y="21" text-anchor="middle" fill="#f9a8d4" font-size="11" font-weight="700">3</text>
          <text x="40" y="14" fill="#fff" font-size="12" font-weight="600">Add streaming skeleton</text>
          <text x="40" y="28" fill="rgba(255,255,255,0.5)" font-family="JetBrains Mono, monospace" font-size="10">tab-types.js · +9</text>
          <g transform="translate(380 12)"><circle cx="6" cy="6" r="6" fill="rgba(255,255,255,0.04)" stroke="rgba(255,255,255,0.2)" stroke-width="1"/></g>
        </g>
      </g>

      <g transform="translate(24 234)">
        <rect width="200" height="38" rx="11" fill="url(#ctaGrad)"/>
        <rect width="200" height="38" rx="11" fill="none" stroke="rgba(255,255,255,0.15)" stroke-width="1"/>
        <text x="100" y="24" text-anchor="middle" fill="#fff" font-family="Inter, system-ui, sans-serif" font-size="12" font-weight="800" letter-spacing="0.6">APPLY ALL · 3 CHANGES</text>

        <g transform="translate(212 0)">
          <rect width="200" height="38" rx="11" fill="rgba(255,255,255,0.04)" stroke="rgba(255,255,255,0.14)" stroke-width="1"/>
          <text x="100" y="24" text-anchor="middle" fill="rgba(255,255,255,0.85)" font-family="Inter, system-ui, sans-serif" font-size="12" font-weight="700" letter-spacing="0.5">REVIEW DIFF</text>
        </g>
      </g>
    </g>
  </g>

  <g transform="translate(60 56)" font-family="Inter, system-ui, sans-serif">
    <g>
      <circle cx="11" cy="11" r="11" fill="url(#glintGrad2)"/>
      <text x="34" y="16" fill="#fff" font-size="14" font-weight="800" letter-spacing="2">GLINT</text>
    </g>
  </g>

  <g transform="translate(60 826)" font-family="Inter, system-ui, sans-serif">
    <text fill="rgba(255,255,255,0.45)" font-size="12" font-weight="600" letter-spacing="3">ISSUE  →  CODE  →  ASSIST</text>
  </g>
  <g transform="translate(1140 826)" text-anchor="end" font-family="Inter, system-ui, sans-serif">
    <text fill="url(#glintGrad)" font-size="12" font-weight="700" letter-spacing="2">ONE WINDOW.</text>
  </g>
</svg>
