<svg width="265" height="78" viewBox="0 0 265 78" fill="none" xmlns="http://www.w3.org/2000/svg">
<path d="M256.33 1.29001H252.162V5.45601H256.33V1.29001Z" fill="#1955A6"/>
<path d="M250.417 7.20001H244.586V13.033H250.417V7.20001Z" fill="#1955A6"/>
<path d="M262.121 9.14099H256.548V14.715H262.121V9.14099Z" fill="#1955A6"/>
<path d="M263.904 20.684H258.073V26.518H263.904V20.684Z" fill="#1955A6"/>
<path d="M241.682 6.744H237.388V0H244.13V6.744H241.682Z" fill="#1955A6"/>
<path d="M233.066 6.744L237.388 0V6.744H233.066Z" fill="#1955A6"/>
<path d="M223.902 74.424C223.763 74.341 223.624 74.259 223.486 74.174H223.902V74.424Z" fill="black"/>
<path d="M244.13 77.252C243.623 77.371 243.113 77.477 242.596 77.569C240.906 77.868 239.153 78.009 237.388 77.994V74.173H244.13V77.252Z" fill="#1EB0A1"/>
<path d="M237.388 67.431H230.645V74.174H237.388V67.431Z" fill="#1EB0A1"/>
<path d="M230.645 60.687H223.902V67.431H230.645V60.687Z" fill="#1EB0A1"/>
<path d="M223.902 53.945H217.16V60.687H223.902V53.945Z" fill="#1EB0A1"/>
<path d="M210.603 53.944C210.511 53.157 210.447 52.368 210.416 51.575V49.112C210.443 48.476 210.49 47.838 210.556 47.202H217.159V53.944H210.603Z" fill="#1EB0A1"/>
<path d="M237.388 77.995C235.119 77.978 232.834 77.699 230.645 77.158V74.174H237.388V77.995Z" fill="#0CAD8A"/>
<path d="M230.645 67.431H223.902V74.174H230.645V67.431Z" fill="#0CAD8A"/>
<path d="M223.902 60.687H217.16V67.431H223.902V60.687Z" fill="#0CAD8A"/>
<path d="M212.22 60.687L212.158 60.522C211.802 59.569 211.508 58.594 211.267 57.609L211.264 57.603V57.595C210.97 56.398 210.751 55.178 210.604 53.946H217.16V60.688H212.22V60.687Z" fill="#0CAD8A"/>
<path d="M230.645 77.158C229.206 76.801 227.809 76.331 226.485 75.747C225.594 75.352 224.734 74.91 223.902 74.424V74.174H230.645V77.158Z" fill="#21B685"/>
<path d="M223.486 74.174C222.514 73.579 221.586 72.922 220.699 72.211L220.686 72.206L220.683 72.197C219.504 71.25 218.402 70.207 217.373 69.074C217.301 68.994 217.23 68.914 217.159 68.833V67.43H223.901V74.173L223.486 74.174Z" fill="#21B685"/>
<path d="M215.998 67.431C214.414 65.385 213.135 63.127 212.22 60.687H217.16V67.431H215.998Z" fill="#21B685"/>
<path d="M217.16 68.833C216.757 68.377 216.37 67.91 215.998 67.43H217.16V68.833Z" fill="#21B685"/>
<path d="M237.388 33.715H241.92V34.087H244.13V40.459H237.388V33.715Z" fill="#34C3E0"/>
<path d="M237.388 26.972H230.645V33.715H237.388V26.972Z" fill="#34C3E0"/>
<path d="M223.902 21.042L224.423 20.23H230.645V26.972H223.902V21.042Z" fill="#34C3E0"/>
<path d="M257.617 53.945H264.154C263.89 56.295 263.365 58.546 262.562 60.687H257.617V53.945Z" fill="#34C3E0"/>
<path d="M251.51 74.174C251.299 74.306 251.089 74.434 250.874 74.558V74.174H251.51Z" fill="black"/>
<path d="M244.13 20.23V26.972H237.388V20.23H244.13ZM242.41 25.962H242.748H243.121V24.086V22.834V22.153V21.662V21.242H238.4V25.963H239.964L242.41 25.962Z" fill="#218CCC"/>
<path d="M237.388 13.487V20.23H230.645V13.487H237.388Z" fill="#218CCC"/>
<path d="M228.745 13.487L230.645 10.522V13.487H228.745Z" fill="#218CCC"/>
<path d="M244.13 26.972H250.874V33.715H245.29V30.714H244.13V26.972Z" fill="#218CCC"/>
<path d="M237.388 26.972H244.13V30.714H242.747H242.41H241.92V33.715H237.388V26.972Z" fill="#27AAE1"/>
<path d="M237.388 20.23H230.645V26.972H237.388V20.23Z" fill="#27AAE1"/>
<path d="M224.423 20.23L228.745 13.487H230.645V20.23H224.423Z" fill="#27AAE1"/>
<path d="M257.617 53.944V47.202H264.195C264.299 48.138 264.352 49.082 264.359 50.03V50.346C264.355 51.57 264.29 52.768 264.154 53.943H257.617V53.944Z" fill="#27AAE1"/>
<path d="M250.874 40.459V47.202H257.617V40.459H254.245H253.12H250.874Z" fill="#27AAE1"/>
<path d="M245.29 33.715H250.874V40.459H244.13V34.087H245.29V33.715Z" fill="#27AAE1"/>
<path d="M244.13 40.459H237.388V47.202H244.13V40.459Z" fill="#7AD0E2"/>
<path d="M237.388 33.715H230.645V40.459H237.388V33.715Z" fill="#7AD0E2"/>
<path d="M230.645 26.972H223.902V33.715H230.645V26.972Z" fill="#7AD0E2"/>
<path d="M220.1 26.972L223.902 21.042V26.972H220.1Z" fill="#7AD0E2"/>
<path d="M262.562 60.687C261.671 63.077 260.435 65.328 258.837 67.431H257.616V60.687H262.562Z" fill="#7AD0E2"/>
<path d="M257.616 53.945H250.874V60.687H257.616V53.945Z" fill="#7AD0E2"/>
<path d="M250.874 47.202H244.13V53.944H250.874V47.202Z" fill="#7AD0E2"/>
<path d="M244.13 47.202V53.944H237.388V47.202H244.13Z" fill="#A5DDED"/>
<path d="M237.388 40.459H230.645V47.202H237.388V40.459Z" fill="#A5DDED"/>
<path d="M230.645 33.715H223.902V40.459H230.645V33.715Z" fill="#A5DDED"/>
<path d="M217.16 31.562L220.1 26.972H223.902V33.715H217.16V31.562Z" fill="#A5DDED"/>
<path d="M258.837 67.431C258.451 67.937 258.044 68.436 257.616 68.927V67.431H258.837Z" fill="#A5DDED"/>
<path d="M257.616 60.687H250.874V67.431H257.616V60.687Z" fill="#A5DDED"/>
<path d="M250.874 53.945H244.13V60.687H250.874V53.945Z" fill="#A5DDED"/>
<path d="M244.13 53.945H237.388V60.687H244.13V53.945Z" fill="#B9E5FB"/>
<path d="M237.388 47.202H230.645V53.944H237.388V47.202Z" fill="#B9E5FB"/>
<path d="M230.645 40.459H223.902V47.202H230.645V40.459Z" fill="#B9E5FB"/>
<path d="M223.902 33.715H217.16V40.459H223.902V33.715Z" fill="#B9E5FB"/>
<path d="M215.78 33.715L217.16 31.562V33.715H215.78Z" fill="#B9E5FB"/>
<path d="M257.617 68.926C257.303 69.288 256.975 69.643 256.636 69.996C255.037 71.649 253.328 73.04 251.511 74.174H250.875V67.431H257.617V68.926Z" fill="#B9E5FB"/>
<path d="M250.874 60.687H244.13V67.431H250.874V60.687Z" fill="#B9E5FB"/>
<path d="M244.13 60.687H237.388V67.431H244.13V60.687Z" fill="#8BD3DA"/>
<path d="M237.388 53.945H230.645V60.687H237.388V53.945Z" fill="#8BD3DA"/>
<path d="M230.645 47.202H223.902V53.944H230.645V47.202Z" fill="#8BD3DA"/>
<path d="M223.902 40.459H217.16V47.202H223.902V40.459Z" fill="#8BD3DA"/>
<path d="M212.129 40.459C212.229 40.193 212.335 39.926 212.443 39.661C213.022 38.252 213.731 36.916 214.545 35.647L214.537 35.653L215.779 33.715H217.159V40.459H212.129Z" fill="#8BD3DA"/>
<path d="M250.874 67.431H244.13V74.174H250.874V67.431Z" fill="#8BD3DA"/>
<path d="M244.13 67.431H237.388V74.174H244.13V67.431Z" fill="#4FC2BF"/>
<path d="M237.388 60.687H230.645V67.431H237.388V60.687Z" fill="#4FC2BF"/>
<path d="M230.645 53.945H223.902V60.687H230.645V53.945Z" fill="#4FC2BF"/>
<path d="M223.902 47.202H217.16V53.944H223.902V47.202Z" fill="#4FC2BF"/>
<path d="M210.557 47.202C210.802 44.896 211.321 42.621 212.13 40.459H217.16V47.202H210.557Z" fill="#4FC2BF"/>
<path d="M250.874 74.558C248.767 75.788 246.518 76.683 244.13 77.253V74.174H250.874V74.558Z" fill="#4FC2BF"/>
<path d="M264.362 33.715H257.617V40.459H264.362V33.715Z" fill="#286FB7"/>
<path d="M244.13 13.487H237.388V20.231H244.13V13.487Z" fill="#286FB7"/>
<path d="M250.874 26.972H254.572H257.617V33.715H250.874V26.972Z" fill="#286FB7"/>
<path d="M244.13 20.23H246.238H250.276H250.874V26.972H244.13V20.23Z" fill="#286FB7"/>
<path fill-rule="evenodd" clip-rule="evenodd" d="M230.645 10.522L233.066 6.74399H237.388V13.487H230.645V10.522Z" fill="#286FB7"/>
<g opacity="0.25">
<path fill-rule="evenodd" clip-rule="evenodd" d="M258.054 34.151H263.927L258.054 40.024V34.151Z" fill="white"/>
<path fill-rule="evenodd" clip-rule="evenodd" d="M258.054 47.636H263.927L258.054 53.51V47.636Z" fill="white"/>
<path fill-rule="evenodd" clip-rule="evenodd" d="M244.566 47.636H250.441L244.566 53.51V47.636Z" fill="white"/>
<path fill-rule="evenodd" clip-rule="evenodd" d="M237.823 40.893H243.696L237.823 46.768V40.893Z" fill="white"/>
<path fill-rule="evenodd" clip-rule="evenodd" d="M237.823 47.636H243.696L237.823 53.51V47.636Z" fill="white"/>
<path fill-rule="evenodd" clip-rule="evenodd" d="M231.079 40.893H236.954L231.079 46.768V40.893Z" fill="white"/>
<path fill-rule="evenodd" clip-rule="evenodd" d="M231.079 47.636H236.954L231.079 53.51V47.636Z" fill="white"/>
<path fill-rule="evenodd" clip-rule="evenodd" d="M224.337 40.893H230.212L224.337 46.768V40.893Z" fill="white"/>
<path fill-rule="evenodd" clip-rule="evenodd" d="M224.337 47.636H230.212L224.337 53.51V47.636Z" fill="white"/>
<path fill-rule="evenodd" clip-rule="evenodd" d="M217.594 40.893H223.469L217.594 46.767V40.893Z" fill="white"/>
<path fill-rule="evenodd" clip-rule="evenodd" d="M217.594 47.636H223.469L217.594 53.51V47.636Z" fill="white"/>
<path fill-rule="evenodd" clip-rule="evenodd" d="M212.553 40.893H216.724L211.149 46.471C211.385 44.591 211.861 42.732 212.553 40.893Z" fill="white"/>
<path fill-rule="evenodd" clip-rule="evenodd" d="M211.048 47.636H216.724L211.048 53.311C210.885 51.482 210.874 49.598 211.048 47.636Z" fill="white"/>
<path fill-rule="evenodd" clip-rule="evenodd" d="M244.566 61.122H250.441L244.566 66.998V61.122Z" fill="white"/>
<path fill-rule="evenodd" clip-rule="evenodd" d="M237.823 54.379H243.696L237.823 60.253V54.379Z" fill="white"/>
<path fill-rule="evenodd" clip-rule="evenodd" d="M237.823 61.12H243.696L237.823 66.998V61.12Z" fill="white"/>
<path fill-rule="evenodd" clip-rule="evenodd" d="M231.079 54.379H236.954L231.079 60.253V54.379Z" fill="white"/>
<path fill-rule="evenodd" clip-rule="evenodd" d="M231.079 61.12H236.954L231.079 66.998V61.12Z" fill="white"/>
<path fill-rule="evenodd" clip-rule="evenodd" d="M224.337 54.379H230.212L224.337 60.253V54.379Z" fill="white"/>
<path fill-rule="evenodd" clip-rule="evenodd" d="M224.337 61.12H230.212L224.337 66.998V61.12Z" fill="white"/>
<path fill-rule="evenodd" clip-rule="evenodd" d="M217.594 54.379H223.469L217.594 60.253V54.379Z" fill="white"/>
<path fill-rule="evenodd" clip-rule="evenodd" d="M217.594 61.122H223.469L217.594 66.998V61.122Z" fill="white"/>
<path fill-rule="evenodd" clip-rule="evenodd" d="M211.15 54.379H216.819L212.224 58.974C211.711 57.452 211.343 55.919 211.15 54.379Z" fill="white"/>
<path fill-rule="evenodd" clip-rule="evenodd" d="M213.047 61.122H216.819L214.286 63.656C213.79 62.855 213.373 62.015 213.047 61.122Z" fill="white"/>
<path fill-rule="evenodd" clip-rule="evenodd" d="M258.054 54.379H263.7L258.054 60.253V54.379Z" fill="white"/>
<path fill-rule="evenodd" clip-rule="evenodd" d="M258.054 61.122H261.944C261.669 62.127 260.942 63.942 259.755 65.197L258.055 66.998L258.054 61.122Z" fill="white"/>
<path fill-rule="evenodd" clip-rule="evenodd" d="M251.306 54.379H257.182L251.306 60.253V54.379Z" fill="white"/>
<path fill-rule="evenodd" clip-rule="evenodd" d="M251.306 61.122H257.182L251.306 66.998V61.122Z" fill="white"/>
<path fill-rule="evenodd" clip-rule="evenodd" d="M244.566 54.379H250.441L244.566 60.253V54.379Z" fill="white"/>
<path fill-rule="evenodd" clip-rule="evenodd" d="M244.566 67.863H250.441L244.566 73.741V67.863Z" fill="white"/>
<path fill-rule="evenodd" clip-rule="evenodd" d="M237.823 67.863H243.696L237.823 73.741V67.863Z" fill="white"/>
<path fill-rule="evenodd" clip-rule="evenodd" d="M231.079 67.863H236.954L231.079 73.741V67.863Z" fill="white"/>
<path fill-rule="evenodd" clip-rule="evenodd" d="M224.337 67.863H230.212L224.337 73.741V67.863Z" fill="white"/>
<path fill-rule="evenodd" clip-rule="evenodd" d="M217.594 67.863H223.469L220.238 71.08C219.228 70.354 218.376 69.504 217.594 68.605V67.863Z" fill="white"/>
<path fill-rule="evenodd" clip-rule="evenodd" d="M251.306 67.863H257.182L251.306 73.741V67.863Z" fill="white"/>
<path fill-rule="evenodd" clip-rule="evenodd" d="M244.566 74.726H249.714C248.043 75.514 246.341 76.206 244.566 76.673V74.726Z" fill="white"/>
<path fill-rule="evenodd" clip-rule="evenodd" d="M237.823 74.726H243.696L241.223 77.2C240.069 77.393 238.934 77.494 237.823 77.458V74.726Z" fill="white"/>
<path fill-rule="evenodd" clip-rule="evenodd" d="M231.079 74.726H236.954L234.382 77.298C233.216 77.213 232.109 77.013 231.079 76.662V74.726Z" fill="white"/>
<path fill-rule="evenodd" clip-rule="evenodd" d="M225.445 74.726H230.212L228.788 76.148L225.445 74.726Z" fill="white"/>
<path fill-rule="evenodd" clip-rule="evenodd" d="M251.306 40.893H257.182L251.306 46.768V40.893Z" fill="white"/>
<path fill-rule="evenodd" clip-rule="evenodd" d="M245.689 34.151H250.441L244.566 40.024V34.442H245.689V34.151Z" fill="white"/>
<path fill-rule="evenodd" clip-rule="evenodd" d="M237.823 34.151H241.365V34.442H243.404L237.823 40.024V34.151Z" fill="white"/>
<path fill-rule="evenodd" clip-rule="evenodd" d="M231.079 34.151H236.954L231.079 40.024V34.151Z" fill="white"/>
<path fill-rule="evenodd" clip-rule="evenodd" d="M224.337 34.149H230.212L224.337 40.024V34.149Z" fill="white"/>
<path fill-rule="evenodd" clip-rule="evenodd" d="M217.594 34.151H223.469L217.594 40.024V34.151Z" fill="white"/>
<path fill-rule="evenodd" clip-rule="evenodd" d="M251.306 27.408H257.182L251.306 33.281V27.408Z" fill="white"/>
<path fill-rule="evenodd" clip-rule="evenodd" d="M244.566 27.406H250.441L245.744 32.104L245.759 30.178L244.566 30.171V27.406Z" fill="white"/>
<path fill-rule="evenodd" clip-rule="evenodd" d="M237.823 27.406H243.696L237.823 33.281V27.406Z" fill="white"/>
<path fill-rule="evenodd" clip-rule="evenodd" d="M231.079 27.406H236.954L231.079 33.281V27.406Z" fill="white"/>
<path fill-rule="evenodd" clip-rule="evenodd" d="M224.337 27.408H230.212L224.337 33.281V27.408Z" fill="white"/>
<path fill-rule="evenodd" clip-rule="evenodd" d="M217.594 31.648L220.439 27.408H223.469L217.594 33.281V31.648Z" fill="white"/>
<path fill-rule="evenodd" clip-rule="evenodd" d="M215.957 34.151H216.63L214.664 36.113L215.957 34.151Z" fill="white"/>
<path fill-rule="evenodd" clip-rule="evenodd" d="M244.566 20.664H250.441L244.566 26.538V20.664Z" fill="white"/>
<path fill-rule="evenodd" clip-rule="evenodd" d="M231.079 20.664H236.954L231.079 26.538V20.664Z" fill="white"/>
<path fill-rule="evenodd" clip-rule="evenodd" d="M224.337 20.664H230.212L224.337 26.538V20.664Z" fill="white"/>
<path fill-rule="evenodd" clip-rule="evenodd" d="M231.079 13.921H236.954L231.079 19.796V13.921Z" fill="white"/>
<path fill-rule="evenodd" clip-rule="evenodd" d="M237.823 13.921H243.696L237.823 19.796V13.921Z" fill="white"/>
<path fill-rule="evenodd" clip-rule="evenodd" d="M233.462 7.17902H236.954L231.079 13.053V10.67L233.462 7.17902Z" fill="white"/>
<path fill-rule="evenodd" clip-rule="evenodd" d="M237.996 0.606995H243.523L237.996 6.137V0.606995Z" fill="white"/>
<path fill-rule="evenodd" clip-rule="evenodd" d="M229.033 13.921H230.47L226.359 17.773L229.033 13.921Z" fill="white"/>
<path fill-rule="evenodd" clip-rule="evenodd" d="M245.08 7.694H249.925L245.08 12.537V7.694Z" fill="white"/>
<path fill-rule="evenodd" clip-rule="evenodd" d="M252.583 1.71201H255.909L252.583 5.036V1.71201Z" fill="white"/>
<path fill-rule="evenodd" clip-rule="evenodd" d="M257.03 9.62399H261.64L257.03 14.234V9.62399Z" fill="white"/>
<path fill-rule="evenodd" clip-rule="evenodd" d="M258.603 21.217H263.373L258.603 25.989V21.217Z" fill="white"/>
</g>
<path d="M0 44.04V40.059L17.621 31.911V36.152L4.425 42.013L17.621 47.91V52.185L0 44.04Z" fill="#72CCD2"/>
<path d="M128.645 47.946L141.804 42.085L128.645 36.188V31.911L146.265 40.059V44.04L128.645 52.185V47.946Z" fill="#72CCD2"/>
<path d="M151.412 24.166V27.65H154.894V31.133H158.377V24.166H151.412Z" fill="#72CCD2"/>
<path d="M20.1 42.62V42.546C20.1 37.017 24.377 32.373 30.237 32.373C33.887 32.373 36.172 33.737 38.016 35.727L35.213 38.713C33.851 37.275 32.413 36.279 30.201 36.279C26.956 36.279 24.56 39.081 24.56 42.473V42.546C24.56 46.011 26.956 48.775 30.383 48.775C32.485 48.775 34.032 47.817 35.434 46.379L38.125 49.033C36.207 51.172 33.96 52.682 30.162 52.682C24.377 52.682 20.1 48.149 20.1 42.62Z" fill="#455560"/>
<path d="M39.1229 42.62V42.546C39.1229 36.981 43.5459 32.373 49.5179 32.373C55.4889 32.373 59.8749 36.907 59.8749 42.473V42.546C59.8749 48.075 55.4499 52.682 49.4429 52.682C43.5089 52.682 39.1229 48.149 39.1229 42.62ZM55.4139 42.62V42.546C55.4139 39.118 52.9449 36.279 49.4429 36.279C45.8679 36.279 43.5819 39.081 43.5819 42.473V42.546C43.5819 45.937 46.0539 48.775 49.5179 48.775C53.1289 48.775 55.4139 45.974 55.4139 42.62Z" fill="#455560"/>
<path d="M102.905 42.842C102.905 37.239 99.7709 32.374 93.5799 32.374C88.0119 32.374 84.0699 36.944 84.0699 42.51V42.584C84.0699 48.593 88.4179 52.682 94.0579 52.682C97.6319 52.682 100.177 51.244 102.021 49.033L99.4029 46.711C97.8549 48.223 96.307 49.033 94.131 49.033C91.259 49.033 89.0099 47.263 88.5279 44.094H102.833C102.867 43.652 102.905 43.246 102.905 42.842ZM88.493 41.144C88.897 38.123 90.8149 36.021 93.5429 36.021C96.4899 36.021 98.1869 38.271 98.4809 41.144H88.493Z" fill="#455560"/>
<path d="M77.608 25.314V34.079C77.43 33.963 77.232 33.873 77.048 33.766C76.915 33.691 76.786 33.615 76.654 33.546C76.422 33.425 76.182 33.315 75.938 33.211C75.814 33.159 75.682 33.115 75.556 33.066C75.108 32.898 74.644 32.759 74.163 32.652C74.029 32.622 73.9 32.589 73.766 32.564C73.486 32.512 73.203 32.471 72.913 32.44C72.774 32.426 72.633 32.419 72.493 32.41C72.23 32.393 71.976 32.355 71.708 32.355C65.738 32.355 61.313 36.962 61.313 42.527V42.546V42.601V42.62C61.313 48.149 65.7 52.682 71.635 52.682C76.235 52.682 79.898 49.978 81.365 46.23C81.378 46.199 81.386 46.167 81.399 46.137C81.522 45.815 81.628 45.484 81.716 45.146C81.737 45.067 81.757 44.988 81.777 44.91C81.849 44.603 81.909 44.29 81.953 43.974C81.966 43.891 81.981 43.808 81.991 43.724C82.035 43.337 82.064 42.946 82.064 42.546V42.527V42.473V42.454V25.313L77.608 25.314ZM71.637 36.279C75.138 36.279 77.608 39.118 77.608 42.546V42.601C77.608 45.955 75.324 48.756 71.71 48.756C68.246 48.756 65.776 45.918 65.776 42.527V42.473C65.776 39.081 68.062 36.279 71.637 36.279Z" fill="#455560"/>
<path d="M120.6 25.314V34.081C118.955 32.992 116.94 32.355 114.702 32.355C108.731 32.355 104.307 36.962 104.307 42.529V42.601C104.307 48.132 108.693 52.665 114.627 52.665C116.898 52.665 118.936 52.007 120.6 50.894C123.345 49.054 125.061 45.971 125.061 42.529V42.455V25.314H120.6ZM120.6 42.601C120.6 45.956 118.313 48.758 114.702 48.758C111.238 48.758 108.769 45.919 108.769 42.529V42.455C108.769 39.062 111.052 36.261 114.627 36.261C118.129 36.261 120.6 39.1 120.6 42.529V42.601Z" fill="#455560"/>
<path d="M158.378 32.373H151.412V52.24H158.378V32.373Z" fill="#455560"/>
<path d="M160.85 32.3H167.853V35.101C169.142 33.442 170.986 31.858 173.824 31.858C178.061 31.858 180.606 34.658 180.606 39.192V52.24H173.641V41.44C173.641 39.228 172.495 38.048 170.8 38.048C169.106 38.048 167.853 39.228 167.853 41.44V52.24H160.85V32.3Z" fill="#455560"/>
<path d="M203.026 31.881H195.117V37.127H195.103L189.713 43.764V25.333H182.747V52.24H189.78L191.488 50.25L192.652 52.24H200.344L196.097 45.09L203.026 37.127V31.881Z" fill="#455560"/>
</svg>
